<?xml version="1.0" encoding="UTF-8"?>
<svg id="icon-0" xmlns="http://www.w3.org/2000/svg" viewBox="0 0 998.47 377.88">
  <defs>
    <style>
      .cls-1 {
        fill: #000;
        stroke-width: 0px;
      }
    </style>
  </defs>
  <g id="tight-bounds">
    <g>
      <g id="textblocktransform">
        <path id="text-0" class="cls-1" d="M0,276.01H0C0,266.93,1.66,259.08,4.98,252.47c3.32-6.62,8.23-11.74,14.73-15.36,6.52-3.61,14.59-5.41,24.2-5.41h0c2.2,0,4.78.13,7.74.39,2.98.26,5.87.68,8.69,1.26,2.83.6,5.17,1.39,7.01,2.38,1.86.99,2.79,2.23,2.79,3.74h0c0,.71-.23,1.48-.7,2.31h0l-4.98,8.35c-1.75-.99-3.9-2.31-6.46-3.96-2.57-1.67-5.44-3.18-8.59-4.54-3.17-1.36-6.53-2.04-10.07-2.04h0c-4.66,0-8.54,1.08-11.65,3.23-3.11,2.15-5.56,4.98-7.35,8.47-1.8,3.49-3.07,7.3-3.81,11.41-.76,4.11-1.14,8.1-1.14,11.96h0c0,6.36,1.16,12.28,3.47,17.77,2.31,5.5,5.8,9.93,10.46,13.3,4.66,3.38,10.51,5.07,17.55,5.07h0c2.91,0,5.82-.24,8.74-.73,2.9-.5,5.53-1.08,7.91-1.75,2.36-.68,4.26-1.26,5.68-1.75,1.42-.5,2.14-.75,2.14-.75h0l2.43,4.64c-4.42,3.46-9.33,5.91-14.73,7.33-5.39,1.42-10.91,2.14-16.55,2.14h0c-8.66,0-16.16-1.79-22.52-5.36-6.36-3.58-11.28-8.65-14.76-15.22C1.73,292.74,0,284.97,0,276.01ZM90.57,236.3h0c0-2.25.82-4.14,2.45-5.68,1.65-1.54,3.62-2.31,5.9-2.31h0c2.33,0,4.31.77,5.95,2.31,1.62,1.54,2.43,3.43,2.43,5.68h0c0,2.18-.81,4.04-2.43,5.58-1.63,1.54-3.62,2.31-5.95,2.31h0c-2.28,0-4.25-.77-5.9-2.31-1.63-1.54-2.45-3.4-2.45-5.58ZM105.74,258.99v52.69h10.31v4.44c-1.34.74-3.55,1.36-6.63,1.84-3.09.47-6.06.7-8.91.7h0c-2.41,0-4.43-.35-6.07-1.04-1.63-.7-2.45-2.24-2.45-4.64h0v-50.26h-10.44v-4.44c1.1-.52,2.76-.95,4.98-1.31,2.22-.36,4.61-.63,7.18-.83,2.56-.19,4.86-.29,6.92-.29h0c1.62,0,2.87.13,3.76.39s1.33,1.17,1.33,2.74h0ZM171.22,309.38l1.89,4.08c-2.77,1.7-5.61,3.12-8.52,4.27-2.9,1.15-6.55,1.72-10.97,1.72h0c-5.78,0-10.34-1.72-13.69-5.17-3.37-3.43-5.05-8.19-5.05-14.27h0v-35.8h-12.26v-2.67c0-1.76.38-2.98,1.14-3.64.78-.65,2.01-.97,3.71-.97h7.4v-14.1c0-2.17.66-3.64,1.97-4.42,1.29-.78,2.95-1.16,4.98-1.16h0c1.26,0,2.72.15,4.37.46,1.67.29,3.03.75,4.1,1.38h0c-.24,1.1-.58,3.02-1.02,5.75-.44,2.72-.66,6.75-.66,12.09h20.63v2.55c0,1.73-.39,2.95-1.16,3.66-.76.71-1.99,1.07-3.69,1.07h-15.78v34.73c0,8.96,3.28,13.45,9.85,13.45h0c1.97,0,3.95-.28,5.92-.83,1.97-.55,3.62-1.08,4.93-1.6,1.29-.52,1.93-.71,1.89-.58h0ZM221.39,312.99v-.61s-.56.31-1.67,1.02c-1.13.71-2.65,1.54-4.56,2.48-1.93.95-4.05,1.79-6.38,2.5-2.33.71-4.72,1.07-7.16,1.07h0c-3.45,0-6.63-.62-9.54-1.87-2.93-1.25-5.28-3.18-7.06-5.8-1.78-2.64-2.67-5.99-2.67-10.05h0c0-4.55,1.32-8.19,3.96-10.92,2.62-2.72,6.25-4.68,10.87-5.87,4.61-1.21,9.9-1.82,15.87-1.82h8.35v-4.44c0-3.07-.19-5.94-.58-8.59-.4-2.65-1.26-4.77-2.57-6.36-1.33-1.6-3.39-2.4-6.19-2.4h0c-2.65,0-5.33.61-8.03,1.82-2.72,1.23-5.3,2.71-7.74,4.44-2.44,1.75-4.65,3.41-6.63,5h0l-4.88-6.53c-.58-.71-.87-1.44-.87-2.18h0c0-1.31.81-2.5,2.43-3.57,1.62-1.07,3.69-2,6.21-2.79,2.54-.78,5.22-1.38,8.03-1.8,2.83-.42,5.45-.63,7.86-.63h0c4.85,0,9.3.78,13.35,2.35,4.04,1.55,7.29,4.06,9.73,7.52,2.43,3.45,3.64,8.02,3.64,13.71h0v33.01h10.29v4.44c-1.34.74-3.55,1.36-6.63,1.84-3.07.47-6.06.7-8.96.7h0c-1.93,0-3.79-.32-5.58-.97-1.8-.66-2.76-2.23-2.89-4.71h0ZM205.76,310.66h0c1.38,0,2.95-.18,4.73-.53s3.49-.78,5.15-1.26c1.67-.5,3.04-.93,4.13-1.29,1.08-.36,1.63-.53,1.63-.53h0v-16.65h-9.95c-1.97,0-4.17.27-6.6.8-2.43.53-4.52,1.56-6.29,3.08-1.76,1.52-2.65,3.79-2.65,6.8h0c0,2.8.85,5.1,2.55,6.89,1.7,1.8,4.13,2.69,7.31,2.69ZM298.59,309.38l1.89,4.08c-2.77,1.7-5.6,3.12-8.49,4.27-2.9,1.15-6.56,1.72-10.99,1.72h0c-5.76,0-10.32-1.72-13.69-5.17-3.35-3.43-5.02-8.19-5.02-14.27h0v-35.8h-12.28v-2.67c0-1.76.39-2.98,1.16-3.64.76-.65,1.99-.97,3.69-.97h7.43v-14.1c0-2.17.65-3.64,1.94-4.42,1.31-.78,2.97-1.16,4.98-1.16h0c1.26,0,2.73.15,4.39.46,1.65.29,3.01.75,4.08,1.38h0c-.23,1.1-.56,3.02-1,5.75-.44,2.72-.66,6.75-.66,12.09h20.63v2.55c0,1.73-.39,2.95-1.16,3.66-.78.71-2.01,1.07-3.71,1.07h-15.75v34.73c0,8.96,3.28,13.45,9.83,13.45h0c1.97,0,3.95-.28,5.92-.83,1.97-.55,3.62-1.08,4.93-1.6,1.31-.52,1.94-.71,1.89-.58h0ZM315.72,236.3h0c0-2.25.82-4.14,2.45-5.68,1.63-1.54,3.6-2.31,5.9-2.31h0c2.33,0,4.3.77,5.92,2.31,1.62,1.54,2.43,3.43,2.43,5.68h0c0,2.18-.81,4.04-2.43,5.58-1.62,1.54-3.59,2.31-5.92,2.31h0c-2.3,0-4.26-.77-5.9-2.31-1.63-1.54-2.45-3.4-2.45-5.58ZM330.89,258.99v52.69h10.29v4.44c-1.34.74-3.55,1.36-6.63,1.84-3.09.47-6.05.7-8.88.7h0c-2.41,0-4.44-.35-6.09-1.04-1.63-.7-2.45-2.24-2.45-4.64h0v-50.26h-10.44v-4.44c1.12-.52,2.77-.95,4.98-1.31,2.22-.36,4.61-.63,7.18-.83,2.57-.19,4.89-.29,6.94-.29h0c1.62,0,2.87.13,3.76.39s1.33,1.17,1.33,2.74h0ZM417.26,287.39h0c0,6.44-1.46,12.05-4.37,16.84-2.9,4.81-6.8,8.54-11.7,11.21-4.9,2.67-10.37,4-16.41,4h0c-6.08,0-11.59-1.34-16.53-4.03-4.93-2.69-8.86-6.43-11.77-11.24-2.9-4.81-4.34-10.4-4.34-16.79h0c0-6.49,1.45-12.15,4.34-16.99,2.91-4.84,6.84-8.6,11.77-11.29,4.93-2.69,10.44-4.03,16.53-4.03h0c6.08,0,11.58,1.34,16.48,4.03,4.89,2.69,8.78,6.45,11.67,11.29,2.88,4.84,4.32,10.5,4.32,16.99ZM366.78,287.27h0c0,4.47.49,8.67,1.48,12.62.99,3.95,2.78,7.14,5.39,9.56,2.6,2.43,6.32,3.64,11.14,3.64h0c4.82,0,8.51-1.21,11.07-3.64,2.57-2.43,4.34-5.61,5.31-9.56.97-3.95,1.46-8.15,1.46-12.62h0c0-4.5-.49-8.71-1.46-12.64-.97-3.93-2.74-7.11-5.31-9.54-2.56-2.43-6.25-3.64-11.07-3.64h0c-4.82,0-8.53,1.21-11.14,3.64s-4.4,5.61-5.39,9.54-1.48,8.15-1.48,12.64ZM438.52,312.99v-50.14h-10.44v-4.44c1.12-.52,2.77-.95,4.98-1.31,2.22-.36,4.61-.63,7.18-.83,2.57-.19,4.88-.29,6.92-.29h0c1.63,0,2.9.13,3.79.39.87.26,1.31,1.17,1.31,2.74h0v2.91c.79-.28,2.46-.98,5-2.11,2.52-1.12,5.55-2.2,9.08-3.25,3.54-1.05,7.19-1.58,10.95-1.58h0c4.58,0,8.03.83,10.36,2.48,2.33,1.63,3.91,3.87,4.73,6.7.84,2.82,1.26,6.04,1.26,9.68h0v37.74h10.29v4.44c-1.34.74-3.55,1.36-6.63,1.84-3.09.47-6.05.7-8.88.7h0c-2.41,0-4.43-.35-6.04-1.04-1.62-.7-2.43-2.24-2.43-4.64h0v-37.86c0-4-.53-6.88-1.6-8.64-1.07-1.75-3.3-2.62-6.7-2.62h0c-1.62,0-3.49.16-5.61.49-2.12.34-4.19.73-6.21,1.16-2.04.44-3.76.83-5.17,1.19-1.39.36-2.19.57-2.4.66h0v32.4c0,4.85.22,8.62.66,11.31.44,2.69.78,4.59,1.02,5.7h0c-1.07.58-2.44,1.04-4.1,1.38-1.65.34-3.11.51-4.37.51h0c-2.02,0-3.68-.4-4.98-1.21-1.31-.81-1.97-2.3-1.97-4.47h0ZM578.83,267h0c3.56,1.5,7.14,3.11,10.75,4.83s6.92,3.66,9.95,5.82c3.03,2.18,5.44,4.72,7.26,7.62,1.81,2.91,2.72,6.32,2.72,10.22h0c0,5.15-1.31,9.53-3.93,13.15-2.62,3.64-6.11,6.43-10.46,8.37-4.34,1.93-9.08,2.89-14.22,2.89h0c-5.13,0-10.27-.66-15.44-1.99-5.15-1.31-9.99-3.47-14.54-6.48h0c-.87-.55-1.72-1.29-2.55-2.21-.83-.94-1.24-1.9-1.24-2.89h0c0-.83.29-1.55.87-2.18h0l6.04-7.18c2.54,2.02,5.39,4.21,8.54,6.58,3.15,2.38,6.38,4.43,9.68,6.14,3.3,1.72,6.37,2.57,9.22,2.57h0c2.41,0,4.69-.51,6.84-1.53,2.15-1.04,3.91-2.49,5.27-4.37,1.36-1.88,2.04-4.12,2.04-6.72h0c0-3.32-1.11-6.26-3.32-8.83-2.2-2.56-5.05-4.85-8.54-6.87-3.49-2.01-7.18-3.8-11.07-5.39h0c-6.36-2.69-11.16-5.39-14.42-8.11-3.27-2.73-5.46-5.45-6.58-8.15-1.13-2.7-1.7-5.34-1.7-7.91h0c0-4.38,1.05-8.04,3.16-10.97,2.09-2.91,4.83-5.23,8.23-6.97,3.4-1.72,7.09-2.94,11.09-3.66,3.98-.73,7.87-1.09,11.67-1.09h0c1.65,0,3.69.11,6.12.32,2.43.23,4.85.58,7.26,1.07,2.41.5,4.42,1.19,6.02,2.06,1.6.86,2.4,1.94,2.4,3.25h0c0,.63-.23,1.4-.7,2.31h0l-4.76,8.13c-3.46-2.02-7.19-4.07-11.19-6.14-4-2.07-8.34-3.11-13.03-3.11h0c-3.37,0-6.31,1.04-8.83,3.11-2.52,2.07-3.79,5.2-3.79,9.39h0c0,2.36.72,4.47,2.16,6.31,1.44,1.83,3.32,3.44,5.63,4.83,2.31,1.38,4.77,2.64,7.38,3.79ZM665.73,309.38l1.89,4.08c-2.77,1.7-5.6,3.12-8.49,4.27-2.91,1.15-6.58,1.72-10.99,1.72h0c-5.76,0-10.32-1.72-13.69-5.17-3.35-3.43-5.02-8.19-5.02-14.27h0v-35.8h-12.28v-2.67c0-1.76.39-2.98,1.16-3.64.76-.65,1.99-.97,3.69-.97h7.43v-14.1c0-2.17.65-3.64,1.94-4.42,1.31-.78,2.97-1.16,4.98-1.16h0c1.26,0,2.73.15,4.39.46,1.65.29,3.01.75,4.08,1.38h0c-.23,1.1-.56,3.02-1,5.75-.44,2.72-.66,6.75-.66,12.09h20.63v2.55c0,1.73-.39,2.95-1.16,3.66-.78.71-2.01,1.07-3.71,1.07h-15.75v34.73c0,8.96,3.28,13.45,9.83,13.45h0c1.97,0,3.95-.28,5.92-.83,1.97-.55,3.62-1.08,4.93-1.6,1.31-.52,1.94-.71,1.89-.58h0ZM715.92,312.99v-.61s-.57.31-1.7,1.02c-1.12.71-2.64,1.54-4.56,2.48-1.91.95-4.03,1.79-6.36,2.5-2.33.71-4.72,1.07-7.18,1.07h0c-3.43,0-6.61-.62-9.54-1.87-2.91-1.25-5.26-3.18-7.04-5.8-1.78-2.64-2.67-5.99-2.67-10.05h0c0-4.55,1.31-8.19,3.93-10.92,2.64-2.72,6.26-4.68,10.87-5.87,4.63-1.21,9.92-1.82,15.87-1.82h8.37v-4.44c0-3.07-.2-5.94-.61-8.59-.39-2.65-1.25-4.77-2.57-6.36-1.33-1.6-3.39-2.4-6.19-2.4h0c-2.65,0-5.33.61-8.03,1.82-2.7,1.23-5.27,2.71-7.72,4.44-2.46,1.75-4.68,3.41-6.65,5h0l-4.85-6.53c-.6-.71-.9-1.44-.9-2.18h0c0-1.31.81-2.5,2.43-3.57,1.62-1.07,3.7-2,6.24-2.79,2.52-.78,5.2-1.38,8.03-1.8,2.82-.42,5.43-.63,7.84-.63h0c4.85,0,9.31.78,13.37,2.35,4.04,1.55,7.28,4.06,9.71,7.52,2.43,3.45,3.64,8.02,3.64,13.71h0v33.01h10.31v4.44c-1.34.74-3.56,1.36-6.65,1.84-3.07.47-6.05.7-8.93.7h0c-1.94,0-3.81-.32-5.61-.97-1.8-.66-2.75-2.23-2.86-4.71h0ZM700.27,310.66h0c1.39,0,2.97-.18,4.73-.53,1.78-.36,3.5-.78,5.17-1.26,1.65-.5,3.03-.93,4.13-1.29l1.63-.53h0v-16.65h-9.95c-1.99,0-4.2.27-6.63.8-2.43.53-4.51,1.56-6.26,3.08-1.76,1.52-2.65,3.79-2.65,6.8h0c0,2.8.85,5.1,2.55,6.89,1.7,1.8,4.13,2.69,7.28,2.69ZM793.12,309.38l1.89,4.08c-2.77,1.7-5.61,3.12-8.52,4.27-2.9,1.15-6.55,1.72-10.97,1.72h0c-5.78,0-10.34-1.72-13.69-5.17-3.37-3.43-5.05-8.19-5.05-14.27h0v-35.8h-12.26v-2.67c0-1.76.38-2.98,1.14-3.64.78-.65,2.01-.97,3.71-.97h7.4v-14.1c0-2.17.66-3.64,1.97-4.42,1.29-.78,2.95-1.16,4.98-1.16h0c1.26,0,2.72.15,4.37.46,1.67.29,3.03.75,4.1,1.38h0c-.24,1.1-.58,3.02-1.02,5.75-.44,2.72-.66,6.75-.66,12.09h20.63v2.55c0,1.73-.39,2.95-1.16,3.66-.76.71-1.99,1.07-3.69,1.07h-15.78v34.73c0,8.96,3.28,13.45,9.85,13.45h0c1.97,0,3.95-.28,5.92-.83,1.97-.55,3.61-1.08,4.9-1.6,1.31-.52,1.95-.71,1.92-.58h0ZM810.23,236.3h0c0-2.25.82-4.14,2.45-5.68,1.65-1.54,3.62-2.31,5.9-2.31h0c2.33,0,4.3.77,5.92,2.31,1.62,1.54,2.43,3.43,2.43,5.68h0c0,2.18-.81,4.04-2.43,5.58-1.62,1.54-3.59,2.31-5.92,2.31h0c-2.28,0-4.25-.77-5.9-2.31-1.63-1.54-2.45-3.4-2.45-5.58ZM825.4,258.99v52.69h10.31v4.44c-1.34.74-3.56,1.36-6.65,1.84-3.07.47-6.03.7-8.88.7h0c-2.41,0-4.43-.35-6.07-1.04-1.63-.7-2.45-2.24-2.45-4.64h0v-50.26h-10.44v-4.44c1.1-.52,2.76-.95,4.98-1.31,2.22-.36,4.6-.63,7.16-.83,2.57-.19,4.89-.29,6.94-.29h0c1.62,0,2.87.13,3.76.39s1.33,1.17,1.33,2.74h0ZM911.78,287.39h0c0,6.44-1.45,12.05-4.34,16.84-2.91,4.81-6.81,8.54-11.7,11.21-4.9,2.67-10.38,4-16.43,4h0c-6.08,0-11.59-1.34-16.53-4.03-4.93-2.69-8.85-6.43-11.75-11.24-2.91-4.81-4.37-10.4-4.37-16.79h0c0-6.49,1.46-12.15,4.37-16.99,2.9-4.84,6.81-8.6,11.75-11.29,4.93-2.69,10.44-4.03,16.53-4.03h0c6.08,0,11.58,1.34,16.48,4.03,4.9,2.69,8.79,6.45,11.67,11.29,2.88,4.84,4.32,10.5,4.32,16.99ZM861.3,287.27h0c0,4.47.49,8.67,1.48,12.62.99,3.95,2.78,7.14,5.39,9.56,2.62,2.43,6.33,3.64,11.14,3.64h0c4.82,0,8.52-1.21,11.09-3.64,2.57-2.43,4.34-5.61,5.29-9.56.97-3.95,1.46-8.15,1.46-12.62h0c0-4.5-.49-8.71-1.46-12.64-.95-3.93-2.72-7.11-5.29-9.54s-6.27-3.64-11.09-3.64h0c-4.81,0-8.52,1.21-11.14,3.64-2.6,2.43-4.4,5.61-5.39,9.54-.99,3.93-1.48,8.15-1.48,12.64ZM933.04,312.99v-50.14h-10.41v-4.44c1.1-.52,2.76-.95,4.98-1.31,2.22-.36,4.6-.63,7.16-.83,2.57-.19,4.89-.29,6.94-.29h0c1.62,0,2.87.13,3.76.39.89.26,1.33,1.17,1.33,2.74h0v2.91c.79-.28,2.45-.98,4.98-2.11,2.52-1.12,5.56-2.2,9.1-3.25,3.53-1.05,7.17-1.58,10.92-1.58h0c4.58,0,8.03.83,10.36,2.48,2.33,1.63,3.92,3.87,4.76,6.7.83,2.82,1.24,6.04,1.24,9.68h0v37.74h10.31v4.44c-1.34.74-3.56,1.36-6.65,1.84-3.07.47-6.03.7-8.88.7h0c-2.41,0-4.43-.35-6.04-1.04-1.62-.7-2.43-2.24-2.43-4.64h0v-37.86c0-4-.53-6.88-1.6-8.64-1.07-1.75-3.3-2.62-6.7-2.62h0c-1.62,0-3.49.16-5.61.49-2.1.34-4.17.73-6.21,1.16-2.04.44-3.75.83-5.15,1.19-1.41.36-2.21.57-2.4.66h0v32.4c0,4.85.22,8.62.66,11.31.44,2.69.77,4.59,1,5.7h0c-1.07.58-2.43,1.04-4.08,1.38-1.67.34-3.13.51-4.39.51h0c-2.01,0-3.66-.4-4.98-1.21-1.31-.81-1.97-2.3-1.97-4.47h0Z"/>
        <path id="text-1" class="cls-1" d="M190.75,343.3l2.9-.55,4.45,23.29c.45-.08.97-.15,1.55-.21.59-.06,1.11-.1,1.55-.13h0v-15.57h3.02v15.57c.48.03,1.02.07,1.62.13.6.06,1.09.13,1.49.21h0l4.45-23.29,2.9.55-4.99,26.15c-.62-.2-1.35-.37-2.2-.53-.86-.15-1.7-.28-2.54-.38-.84-.1-1.58-.14-2.22-.14h0c-.64,0-1.38.05-2.22.14-.84.1-1.68.23-2.52.38-.84.16-1.58.33-2.22.53h0l-4.99-26.15ZM220.84,341.53v8.73c.5-.17,1.05-.3,1.65-.4.6-.1,1.23-.14,1.87-.14h0c.7,0,1.47.08,2.31.23.84.16,1.64.46,2.39.92.76.46,1.36,1.19,1.8,2.17h0c.2.42.35.92.46,1.51.11.59.19,1.35.23,2.28.04.94.07,2.17.07,3.68h0v8.52h-2.69v-8.6c0-1.85-.04-3.25-.13-4.22-.08-.96-.31-1.71-.67-2.24h0c-.22-.39-.64-.78-1.24-1.16-.6-.37-1.5-.56-2.7-.56h0c-.7,0-1.32.06-1.87.17-.54.11-1.04.27-1.49.46h0v16.16h-2.69v-24.84l-.84-2.64h3.53ZM249.25,360.34h-10.24v5.5c.64.45,1.34.74,2.1.88.76.14,1.45.21,2.1.21h0c1.2,0,2.29-.13,3.25-.4.97-.26,1.9-.7,2.8-1.32h0v2.81c-.84.5-1.76.87-2.75,1.09-.99.22-2.06.34-3.21.34h0c-1.79,0-3.37-.25-4.73-.76-1.35-.5-2.59-1.25-3.71-2.22h0l1.47-1.72v-6.84c0-.53,0-1.16.02-1.89.02-.73.14-1.48.36-2.27.22-.78.63-1.51,1.22-2.18h0c.76-.84,1.57-1.36,2.45-1.55.88-.2,1.68-.29,2.38-.29h0c.72,0,1.52.1,2.41.29s1.69.71,2.42,1.55h0c.58.67.99,1.4,1.23,2.18.24.78.37,1.54.4,2.27.03.73.04,1.36.04,1.89h0v2.43ZM239.01,357.82h7.3c0-.62-.03-1.31-.08-2.1-.06-.78-.29-1.47-.67-2.06h0c-.17-.28-.48-.59-.92-.92-.45-.34-1.11-.5-1.97-.5h0c-.84,0-1.49.17-1.96.5-.46.34-.79.64-.98.92h0c-.36.59-.57,1.27-.63,2.06-.06.78-.08,1.48-.08,2.1h0ZM253.99,369.02v-13.98l-1.22-1.89c1.23-1.04,2.6-1.81,4.1-2.33,1.49-.51,3.01-.88,4.55-1.11h0l.46,2.52c-1.34.2-2.42.43-3.23.69-.81.27-1.47.54-1.97.82h0v15.28h-2.69ZM277.53,360.34h-10.24v5.5c.64.45,1.34.74,2.1.88.76.14,1.45.21,2.1.21h0c1.2,0,2.29-.13,3.26-.4.96-.26,1.89-.7,2.79-1.32h0v2.81c-.84.5-1.75.87-2.74,1.09-1,.22-2.07.34-3.21.34h0c-1.79,0-3.36-.25-4.72-.76-1.36-.5-2.6-1.25-3.72-2.22h0l1.47-1.72v-6.84c0-.53,0-1.16.03-1.89.01-.73.13-1.48.35-2.27.22-.78.63-1.51,1.22-2.18h0c.76-.84,1.58-1.36,2.46-1.55.88-.2,1.67-.29,2.37-.29h0c.73,0,1.53.1,2.42.29.88.2,1.68.71,2.41,1.55h0c.59.67,1,1.4,1.24,2.18.24.78.37,1.54.39,2.27.03.73.04,1.36.04,1.89h0v2.43ZM267.29,357.82h7.3c0-.62-.03-1.31-.08-2.1-.06-.78-.28-1.47-.67-2.06h0c-.17-.28-.48-.59-.92-.92-.45-.34-1.11-.5-1.97-.5h0c-.84,0-1.49.17-1.95.5-.46.34-.79.64-.99.92h0c-.36.59-.57,1.27-.63,2.06-.06.78-.08,1.48-.08,2.1h0ZM291.72,352.36l.21-2.64c1.18,0,2.35.1,3.53.31,1.18.21,2.25.58,3.23,1.09.98.52,1.76,1.26,2.35,2.22.59.97.88,2.21.88,3.72h0v8.39l1.13,1.93c-1.29.73-2.57,1.25-3.84,1.57-1.27.32-2.44.49-3.5.49h0c-1.37,0-2.48-.18-3.32-.53-.84-.35-1.5-.74-1.97-1.19h0c-.45-.48-.84-1.07-1.18-1.79-.34-.71-.5-1.51-.5-2.41h0c0-1.4.29-2.55.88-3.47.59-.91,1.38-1.61,2.37-2.12,1-.5,2.12-.86,3.36-1.07,1.25-.21,2.54-.31,3.89-.31h0c-.06-.92-.33-1.66-.82-2.21-.49-.54-1.1-.95-1.85-1.23-.74-.28-1.53-.47-2.37-.57-.84-.1-1.66-.16-2.48-.18h0ZM299.23,366.21v-7.13c-.67,0-1.44.04-2.31.13-.87.08-1.71.26-2.52.52-.81.27-1.48.68-2.01,1.24-.53.56-.8,1.31-.8,2.27h0c0,.64.1,1.18.29,1.61.2.44.42.77.67.99h0c.45.45.96.74,1.53.88.58.14,1.14.21,1.7.21h0c.67,0,1.29-.07,1.85-.21s1.09-.31,1.59-.5h0ZM305.93,341.53h3.53v16.62c0,1.54.08,2.83.24,3.88.15,1.05.52,1.98,1.11,2.8s1.52,1.61,2.81,2.39h0l-1.38,2.22c-1.54-.81-2.7-1.73-3.48-2.75-.78-1.02-1.31-2.21-1.57-3.58-.27-1.37-.4-3.02-.4-4.95h0v-13.98l-.84-2.64ZM315.04,341.53h3.53v16.62c0,1.54.08,2.83.24,3.88.15,1.05.52,1.98,1.11,2.8.59.81,1.52,1.61,2.81,2.39h0l-1.38,2.22c-1.54-.81-2.7-1.73-3.48-2.75-.78-1.02-1.31-2.21-1.57-3.58-.27-1.37-.4-3.02-.4-4.95h0v-13.98l-.84-2.64ZM331.58,350.26l2.64-.55,3.15,13.43c.22.95.54,1.8.94,2.56.41.76,1.07,1.16,2,1.22h.27c.1,0,.21-.01.32-.04h0l3.99-17.16,2.64.55-6.46,27.61-2.6-.59,1.8-7.85c-1.48-.06-2.66-.55-3.53-1.47-.87-.92-1.52-2.32-1.97-4.2h0l-3.19-13.51ZM350.71,367.55v-9.65c0-.53.01-1.16.04-1.89.03-.73.16-1.48.4-2.27.24-.78.66-1.51,1.28-2.18h0c.78-.84,1.65-1.36,2.59-1.55.93-.2,1.75-.29,2.45-.29h0c.73,0,1.55.1,2.48.29.92.2,1.78.71,2.56,1.55h0c.62.67,1.04,1.4,1.28,2.18.24.78.37,1.54.39,2.27.03.73.04,1.36.04,1.89h0v6.84l1.43,1.72c-1.12.98-2.35,1.72-3.69,2.22-1.34.5-2.84.76-4.49.76h0c-1.62,0-2.99-.2-4.09-.61-1.11-.4-2-.83-2.67-1.28h0ZM353.39,357.82v8.02c.64.45,1.33.74,2.06.88.73.14,1.4.21,2.01.21h0c.62,0,1.3-.07,2.04-.21.74-.14,1.42-.43,2.03-.88h0v-8.02c0-.62-.03-1.31-.1-2.1-.07-.78-.32-1.47-.74-2.06h0c-.2-.28-.55-.59-1.05-.92-.5-.34-1.23-.5-2.18-.5h0c-.95,0-1.67.17-2.16.5-.49.34-.85.64-1.07.92h0c-.42.59-.66,1.27-.73,2.06-.07.78-.11,1.48-.11,2.1h0ZM382.39,365.46l1.01,2.06c-.73.45-1.69.88-2.9,1.3-1.2.42-2.66.63-4.36.63h0c-.7,0-1.47-.08-2.31-.23-.84-.16-1.63-.47-2.37-.95-.74-.48-1.35-1.19-1.83-2.14h0c-.17-.42-.31-.92-.42-1.51s-.2-1.36-.25-2.31c-.06-.95-.08-2.17-.08-3.65h0v-8.52h2.69v8.6c0,1.85.05,3.25.15,4.21.1.97.31,1.72.65,2.25h0c.25.36.68.74,1.28,1.13.6.39,1.5.59,2.7.59h0c.67,0,1.29-.06,1.85-.17.56-.11,1.06-.27,1.51-.46h0v-16.16h2.69v15.32ZM387.72,369.02v-13.98l-1.22-1.89c1.23-1.04,2.59-1.81,4.09-2.33,1.5-.51,3.02-.88,4.56-1.11h0l.46,2.52c-1.34.2-2.42.43-3.23.69-.81.27-1.47.54-1.97.82h0v15.28h-2.69ZM406.81,369.02v-13.98l-1.22-1.89c1.23-1.04,2.6-1.81,4.1-2.33,1.49-.51,3.01-.88,4.55-1.11h0l.46,2.52c-1.34.2-2.42.43-3.23.69-.81.27-1.47.54-1.97.82h0v15.28h-2.69ZM430.35,360.34h-10.24v5.5c.64.45,1.34.74,2.1.88s1.45.21,2.1.21h0c1.2,0,2.29-.13,3.26-.4.96-.26,1.89-.7,2.79-1.32h0v2.81c-.84.5-1.75.87-2.74,1.09-1,.22-2.07.34-3.21.34h0c-1.79,0-3.36-.25-4.72-.76-1.36-.5-2.6-1.25-3.72-2.22h0l1.47-1.72v-6.84c0-.53,0-1.16.03-1.89.01-.73.13-1.48.35-2.27.22-.78.63-1.51,1.22-2.18h0c.76-.84,1.58-1.36,2.46-1.55.88-.2,1.67-.29,2.37-.29h0c.73,0,1.53.1,2.42.29.88.2,1.68.71,2.41,1.55h0c.59.67,1,1.4,1.24,2.18.23.78.37,1.54.39,2.27.03.73.04,1.36.04,1.89h0v2.43ZM420.11,357.82h7.3c0-.62-.03-1.31-.08-2.1-.06-.78-.28-1.47-.67-2.06h0c-.17-.28-.48-.59-.92-.92-.45-.34-1.11-.5-1.97-.5h0c-.84,0-1.49.17-1.95.5-.46.34-.79.64-.99.92h0c-.36.59-.57,1.27-.63,2.06-.06.78-.08,1.48-.08,2.1h0ZM434.97,369.02v-21.99l-1.22-1.89c1.32-1.15,2.9-2.01,4.74-2.59,1.85-.57,3.71-.91,5.58-1.02h0l.21,2.52c-1.15.08-2.33.27-3.55.55-1.21.28-2.24.66-3.08,1.13h0v4.41h3.86v2.52h-3.86v16.37h-2.69ZM457.51,360.34h-10.24v5.5c.64.45,1.34.74,2.1.88.76.14,1.45.21,2.1.21h0c1.2,0,2.29-.13,3.25-.4.97-.26,1.9-.7,2.8-1.32h0v2.81c-.84.5-1.76.87-2.75,1.09-.99.22-2.06.34-3.21.34h0c-1.79,0-3.37-.25-4.73-.76-1.35-.5-2.59-1.25-3.71-2.22h0l1.47-1.72v-6.84c0-.53,0-1.16.02-1.89.02-.73.14-1.48.36-2.27.22-.78.63-1.51,1.22-2.18h0c.76-.84,1.57-1.36,2.45-1.55.88-.2,1.68-.29,2.38-.29h0c.73,0,1.53.1,2.41.29.88.2,1.69.71,2.42,1.55h0c.59.67,1,1.4,1.23,2.18.24.78.37,1.54.4,2.27.03.73.04,1.36.04,1.89h0v2.43ZM447.27,357.82h7.3c0-.62-.03-1.31-.08-2.1-.06-.78-.28-1.47-.67-2.06h0c-.17-.28-.48-.59-.92-.92-.45-.34-1.11-.5-1.97-.5h0c-.84,0-1.49.17-1.96.5-.46.34-.79.64-.98.92h0c-.36.59-.57,1.27-.63,2.06-.06.78-.08,1.48-.08,2.1h0ZM462.24,369.02v-13.98l-1.22-1.89c1.23-1.04,2.6-1.81,4.1-2.33,1.49-.51,3.01-.88,4.55-1.11h0l.46,2.52c-1.34.2-2.42.43-3.23.69-.81.27-1.47.54-1.97.82h0v15.28h-2.69ZM485.78,360.34h-10.24v5.5c.64.45,1.34.74,2.1.88.76.14,1.45.21,2.1.21h0c1.2,0,2.29-.13,3.26-.4.96-.26,1.89-.7,2.79-1.32h0v2.81c-.84.5-1.75.87-2.74,1.09-1,.22-2.07.34-3.21.34h0c-1.79,0-3.36-.25-4.72-.76-1.36-.5-2.6-1.25-3.72-2.22h0l1.47-1.72v-6.84c0-.53,0-1.16.03-1.89.01-.73.13-1.48.35-2.27.22-.78.63-1.51,1.22-2.18h0c.76-.84,1.58-1.36,2.46-1.55.88-.2,1.67-.29,2.37-.29h0c.73,0,1.53.1,2.42.29.88.2,1.68.71,2.41,1.55h0c.59.67,1,1.4,1.24,2.18.24.78.37,1.54.39,2.27.03.73.04,1.36.04,1.89h0v2.43ZM475.54,357.82h7.3c0-.62-.03-1.31-.08-2.1-.06-.78-.28-1.47-.67-2.06h0c-.17-.28-.48-.59-.92-.92-.45-.34-1.11-.5-1.97-.5h0c-.84,0-1.49.17-1.95.5-.46.34-.79.64-.99.92h0c-.36.59-.57,1.27-.63,2.06-.06.78-.08,1.48-.08,2.1h0ZM490.53,353.7l-.97-2.06c.73-.45,1.69-.88,2.9-1.3s2.64-.63,4.32-.63h0c.73,0,1.5.08,2.33.23.83.16,1.62.46,2.38.92.76.46,1.37,1.19,1.85,2.17h0c.2.42.34.92.44,1.51.1.59.18,1.35.24,2.28.06.94.08,2.17.08,3.68h0v8.52h-2.69v-8.6c0-1.85-.05-3.25-.15-4.22-.1-.96-.31-1.71-.65-2.24h0c-.25-.39-.68-.78-1.28-1.16-.6-.37-1.5-.56-2.7-.56h0c-.67,0-1.29.06-1.85.17-.56.11-1.08.27-1.55.46h0v16.16h-2.69v-15.32ZM519.82,350.3l-.67,2.43c-.53-.14-1.1-.26-1.7-.36-.6-.1-1.15-.14-1.65-.14h0c-1.01,0-1.79.17-2.33.5-.54.34-.91.64-1.11.92h0c-.45.59-.71,1.29-.8,2.1-.08.81-.13,1.52-.13,2.14h0v7.93c1.29.73,2.74,1.09,4.36,1.09h0c.78,0,1.52-.07,2.2-.21.69-.14,1.38-.38,2.08-.71h0v2.64c-1.34.53-2.78.8-4.32.8h0c-1.43,0-2.69-.16-3.78-.49-1.09-.32-2.02-.72-2.8-1.19-.77-.48-1.4-.91-1.91-1.3h0l1.47-1.72v-6.84c0-.53.01-1.16.04-1.89.03-.73.17-1.48.42-2.27.25-.78.7-1.51,1.34-2.18h0c.81-.84,1.71-1.36,2.69-1.55.98-.2,1.86-.29,2.64-.29h0c.73,0,1.42.06,2.07.17.66.11,1.28.25,1.87.42h0ZM536.68,360.34h-10.24v5.5c.64.45,1.34.74,2.1.88.76.14,1.45.21,2.1.21h0c1.2,0,2.29-.13,3.26-.4.96-.26,1.89-.7,2.79-1.32h0v2.81c-.84.5-1.75.87-2.74,1.09-1,.22-2.07.34-3.21.34h0c-1.79,0-3.36-.25-4.72-.76-1.36-.5-2.6-1.25-3.72-2.22h0l1.47-1.72v-6.84c0-.53,0-1.16.03-1.89.01-.73.13-1.48.35-2.27.22-.78.63-1.51,1.22-2.18h0c.76-.84,1.58-1.36,2.46-1.55.88-.2,1.67-.29,2.37-.29h0c.73,0,1.53.1,2.42.29.88.2,1.68.71,2.41,1.55h0c.59.67,1,1.4,1.24,2.18.24.78.37,1.54.39,2.27.03.73.04,1.36.04,1.89h0v2.43ZM526.44,357.82h7.3c0-.62-.03-1.31-.08-2.1-.06-.78-.28-1.47-.67-2.06h0c-.17-.28-.48-.59-.92-.92-.45-.34-1.11-.5-1.97-.5h0c-.84,0-1.49.17-1.95.5-.46.34-.79.64-.99.92h0c-.36.59-.57,1.27-.63,2.06-.06.78-.08,1.48-.08,2.1h0ZM552.63,351.23l-1.09,2.35c-.78-.39-1.54-.7-2.28-.92-.74-.22-1.59-.34-2.54-.34h0c-.92,0-1.71.18-2.37.55-.66.36-.99,1.04-.99,2.01h0c0,.76.25,1.35.76,1.78.5.44,1.12.84,1.85,1.2h0l2.77,1.34c1.23.59,2.2,1.26,2.9,2.03.7.77,1.05,1.72,1.05,2.84h0v.97l1.43,1.72c-1.2,1.12-2.48,1.85-3.82,2.18-1.34.34-2.63.5-3.86.5h0c-1.2,0-2.29-.1-3.27-.31-.98-.21-1.8-.46-2.48-.74h0v-2.69c.78.34,1.6.62,2.46.86.85.24,1.92.36,3.21.36h0c.76,0,1.46-.08,2.12-.25.65-.17,1.16-.39,1.53-.67h0v-.84c0-.84-.17-1.53-.52-2.08-.35-.54-1.06-1.08-2.12-1.61h0l-3.23-1.59c-.92-.48-1.73-1.08-2.41-1.8-.69-.73-1.03-1.79-1.03-3.19h0c0-1.57.54-2.82,1.62-3.76,1.07-.93,2.55-1.4,4.42-1.4h0c1.2,0,2.3.14,3.3.42.99.28,1.86.64,2.62,1.09h0ZM575.96,350.3l-.67,2.43c-.53-.14-1.1-.26-1.7-.36-.6-.1-1.15-.14-1.65-.14h0c-1.01,0-1.79.17-2.33.5-.54.34-.91.64-1.11.92h0c-.45.59-.71,1.29-.8,2.1-.08.81-.13,1.52-.13,2.14h0v7.93c1.29.73,2.74,1.09,4.36,1.09h0c.78,0,1.52-.07,2.2-.21.69-.14,1.38-.38,2.08-.71h0v2.64c-1.34.53-2.78.8-4.32.8h0c-1.43,0-2.69-.16-3.78-.49-1.09-.32-2.02-.72-2.8-1.19-.77-.48-1.4-.91-1.91-1.3h0l1.47-1.72v-6.84c0-.53.01-1.16.04-1.89.03-.73.17-1.48.42-2.27.25-.78.7-1.51,1.34-2.18h0c.81-.84,1.71-1.36,2.69-1.55.98-.2,1.86-.29,2.64-.29h0c.73,0,1.42.06,2.07.17.66.11,1.28.25,1.87.42h0ZM579.82,367.55v-9.65c0-.53.01-1.16.04-1.89.03-.73.16-1.48.4-2.27.23-.78.66-1.51,1.28-2.18h0c.78-.84,1.65-1.36,2.59-1.55.93-.2,1.75-.29,2.45-.29h0c.73,0,1.55.1,2.48.29s1.78.71,2.56,1.55h0c.62.67,1.04,1.4,1.28,2.18.24.78.37,1.54.39,2.27.03.73.04,1.36.04,1.89h0v6.84l1.43,1.72c-1.12.98-2.35,1.72-3.69,2.22-1.34.5-2.84.76-4.49.76h0c-1.62,0-2.99-.2-4.09-.61-1.11-.4-2-.83-2.67-1.28h0ZM582.5,357.82v8.02c.64.45,1.33.74,2.06.88.73.14,1.4.21,2.01.21h0c.62,0,1.3-.07,2.04-.21.74-.14,1.42-.43,2.03-.88h0v-8.02c0-.62-.03-1.31-.1-2.1-.07-.78-.32-1.47-.74-2.06h0c-.2-.28-.55-.59-1.05-.92-.5-.34-1.23-.5-2.18-.5h0c-.95,0-1.67.17-2.16.5-.49.34-.85.64-1.07.92h0c-.42.59-.66,1.27-.73,2.06-.07.78-.11,1.48-.11,2.1h0ZM598.37,354.54l-1.18-2.06c1.54-.92,3.25-1.62,5.12-2.08,1.87-.46,3.83-.69,5.88-.69h0c.5,0,1.22.04,2.14.13.92.08,1.9.28,2.92.59,1.02.31,1.91.83,2.66,1.55h0c1.06,1.01,1.7,2.15,1.91,3.42.21,1.28.31,2.49.31,3.63h0v9.99h-2.64v-8.52c0-.7-.01-1.46-.04-2.29-.03-.82-.14-1.62-.34-2.39-.2-.77-.56-1.42-1.09-1.95h0c-.5-.53-1.19-.94-2.06-1.22s-1.65-.42-2.35-.42h0v16.79h-2.69v-16.79c-.98,0-1.98.09-3,.27-1.02.18-1.98.47-2.88.86h0v15.65h-2.69v-14.48ZM635.68,360.34h-10.24v5.5c.64.45,1.34.74,2.1.88.76.14,1.45.21,2.1.21h0c1.2,0,2.29-.13,3.25-.4.97-.26,1.9-.7,2.8-1.32h0v2.81c-.84.5-1.76.87-2.75,1.09-.99.22-2.06.34-3.21.34h0c-1.79,0-3.37-.25-4.73-.76-1.35-.5-2.59-1.25-3.71-2.22h0l1.47-1.72v-6.84c0-.53,0-1.16.02-1.89.02-.73.14-1.48.36-2.27.22-.78.63-1.51,1.22-2.18h0c.76-.84,1.57-1.36,2.45-1.55.88-.2,1.68-.29,2.38-.29h0c.73,0,1.53.1,2.41.29.88.2,1.69.71,2.42,1.55h0c.59.67,1,1.4,1.23,2.18.24.78.37,1.54.4,2.27.03.73.04,1.36.04,1.89h0v2.43ZM625.44,357.82h7.3c0-.62-.03-1.31-.08-2.1-.06-.78-.28-1.47-.67-2.06h0c-.17-.28-.48-.59-.92-.92-.45-.34-1.11-.5-1.97-.5h0c-.84,0-1.49.17-1.96.5-.46.34-.79.64-.98.92h0c-.36.59-.57,1.27-.63,2.06-.06.78-.08,1.48-.08,2.1h0ZM646.91,345.1h3.53v5.04h3.99v2.6h-3.99v5.41c0,.78.02,1.66.07,2.64.04.98.32,1.92.86,2.81h0c.39.64,1,1.31,1.83,2.01.82.7,1.6,1.27,2.33,1.72h0l-1.59,2.1c-.81-.45-1.63-1.01-2.45-1.68-.83-.67-1.51-1.37-2.04-2.1h0c-.76-1.06-1.22-2.13-1.4-3.21-.18-1.07-.28-2.14-.28-3.21h0v-11.5l-.84-2.64ZM658.12,367.55v-9.65c0-.53.01-1.16.04-1.89.03-.73.16-1.48.39-2.27.24-.78.67-1.51,1.28-2.18h0c.78-.84,1.64-1.36,2.58-1.55.94-.2,1.76-.29,2.46-.29h0c.73,0,1.55.1,2.48.29.92.2,1.78.71,2.56,1.55h0c.62.67,1.04,1.4,1.28,2.18.24.78.37,1.54.4,2.27.03.73.04,1.36.04,1.89h0v6.84l1.43,1.72c-1.12.98-2.35,1.72-3.69,2.22-1.34.5-2.84.76-4.49.76h0c-1.62,0-2.99-.2-4.1-.61-1.1-.4-1.99-.83-2.66-1.28h0ZM660.81,357.82v8.02c.64.45,1.33.74,2.06.88.73.14,1.4.21,2.01.21h0c.62,0,1.29-.07,2.03-.21.74-.14,1.42-.43,2.04-.88h0v-8.02c0-.62-.04-1.31-.11-2.1-.07-.78-.31-1.47-.73-2.06h0c-.2-.28-.55-.59-1.05-.92-.5-.34-1.23-.5-2.18-.5h0c-.95,0-1.67.17-2.17.5-.49.34-.84.64-1.07.92h0c-.42.59-.67,1.27-.74,2.06-.07.78-.1,1.48-.1,2.1h0ZM686.99,341.53v8.73c.5-.17,1.06-.3,1.66-.4.6-.1,1.22-.14,1.86-.14h0c.7,0,1.47.08,2.31.23.84.16,1.64.46,2.39.92.76.46,1.36,1.19,1.8,2.17h0c.2.42.35.92.46,1.51.11.59.19,1.35.24,2.28.04.94.06,2.17.06,3.68h0v8.52h-2.69v-8.6c0-1.85-.04-3.25-.13-4.22-.08-.96-.31-1.71-.67-2.24h0c-.22-.39-.64-.78-1.23-1.16-.6-.37-1.51-.56-2.71-.56h0c-.7,0-1.32.06-1.86.17-.55.11-1.05.27-1.49.46h0v16.16h-2.69v-24.84l-.84-2.64h3.53ZM704.4,352.36l.21-2.64c1.18,0,2.35.1,3.53.31,1.18.21,2.25.58,3.23,1.09.98.52,1.76,1.26,2.35,2.22.59.97.88,2.21.88,3.72h0v8.39l1.13,1.93c-1.29.73-2.57,1.25-3.84,1.57-1.28.32-2.45.49-3.51.49h0c-1.37,0-2.48-.18-3.32-.53-.84-.35-1.5-.74-1.97-1.19h0c-.45-.48-.84-1.07-1.18-1.79-.34-.71-.5-1.51-.5-2.41h0c0-1.4.29-2.55.88-3.47.59-.91,1.38-1.61,2.38-2.12.99-.5,2.11-.86,3.36-1.07,1.24-.21,2.53-.31,3.88-.31h0c-.06-.92-.33-1.66-.81-2.21-.49-.54-1.11-.95-1.85-1.23-.74-.28-1.54-.47-2.38-.57-.84-.1-1.66-.16-2.48-.18h0ZM711.91,366.21v-7.13c-.67,0-1.44.04-2.31.13s-1.71.26-2.52.52c-.81.27-1.48.68-2.01,1.24s-.8,1.31-.8,2.27h0c0,.64.1,1.18.29,1.61.2.44.42.77.67.99h0c.45.45.96.74,1.54.88.57.14,1.14.21,1.7.21h0c.67,0,1.29-.07,1.85-.21s1.09-.31,1.59-.5h0ZM719.72,353.7l-.97-2.06c.73-.45,1.69-.88,2.9-1.3,1.2-.42,2.64-.63,4.32-.63h0c.73,0,1.5.08,2.33.23.83.16,1.62.46,2.38.92.76.46,1.37,1.19,1.85,2.17h0c.2.42.34.92.44,1.51.1.59.18,1.35.23,2.28.06.94.08,2.17.08,3.68h0v8.52h-2.69v-8.6c0-1.85-.05-3.25-.15-4.22-.1-.96-.31-1.71-.65-2.24h0c-.25-.39-.68-.78-1.28-1.16-.6-.37-1.5-.56-2.7-.56h0c-.67,0-1.29.06-1.85.17s-1.08.27-1.55.46h0v16.16h-2.69v-15.32ZM751.91,351.52l-.97,2.22v3.48c0,2.04-.61,3.68-1.83,4.91-1.21,1.23-2.9,1.85-5.05,1.85h0c-.2,0-.39,0-.59-.03-.2-.01-.36-.03-.5-.06h0v2.6h2.22c1.15,0,2.26.15,3.33.46,1.08.31,1.96.85,2.64,1.64.69.78,1.03,1.89,1.03,3.32h0v1.01l1.43,1.72c-1.18,1.06-2.53,1.87-4.05,2.42-1.52.54-3.12.81-4.8.81h0c-3.22,0-5.99-.92-8.31-2.77h0l1.43-2.14c1.31.95,2.47,1.59,3.46,1.91,1,.32,2.14.48,3.42.48h0c1.09,0,2.03-.13,2.81-.38.78-.25,1.43-.55,1.93-.88h0v-.88c0-1.4-.29-2.45-.86-3.15-.57-.7-1.72-1.05-3.46-1.05h-4.95v-5.75c-1.01-.48-1.78-1.2-2.31-2.18-.53-.98-.8-2.13-.8-3.44h0v-1.47c0-1.45.34-2.66,1.01-3.61.67-.95,1.57-1.66,2.7-2.14,1.14-.48,2.39-.71,3.76-.71h0c1.82,0,3.33.22,4.53.65,1.2.44,2.13.82,2.77,1.16h0ZM748.26,357.19v-4.15c-.48-.22-1.04-.41-1.68-.57-.64-.15-1.38-.23-2.22-.23h0c-1.31,0-2.4.34-3.26,1.02-.85.69-1.28,1.66-1.28,2.92h0v1.47c0,1.2.38,2.14,1.15,2.81.77.67,1.77,1.01,3,1.01h0c1.29,0,2.31-.36,3.06-1.09.76-.73,1.16-1.79,1.22-3.19h0ZM763.4,367.55v-9.65c0-.53.01-1.16.04-1.89.03-.73.16-1.48.4-2.27.23-.78.66-1.51,1.28-2.18h0c.78-.84,1.65-1.36,2.59-1.55.93-.2,1.75-.29,2.45-.29h0c.73,0,1.55.1,2.48.29.92.2,1.78.71,2.56,1.55h0c.62.67,1.04,1.4,1.28,2.18.23.78.37,1.54.39,2.27.03.73.04,1.36.04,1.89h0v6.84l1.43,1.72c-1.12.98-2.35,1.72-3.69,2.22-1.34.5-2.84.76-4.49.76h0c-1.62,0-2.99-.2-4.09-.61-1.11-.4-2-.83-2.67-1.28h0ZM766.09,357.82v8.02c.64.45,1.33.74,2.06.88s1.4.21,2.01.21h0c.62,0,1.3-.07,2.04-.21.74-.14,1.42-.43,2.03-.88h0v-8.02c0-.62-.03-1.31-.1-2.1-.07-.78-.32-1.47-.74-2.06h0c-.2-.28-.55-.59-1.05-.92-.5-.34-1.23-.5-2.18-.5h0c-.95,0-1.67.17-2.16.5-.49.34-.85.64-1.07.92h0c-.42.59-.66,1.27-.73,2.06-.07.78-.11,1.48-.11,2.1h0ZM795.09,365.46l1.01,2.06c-.73.45-1.69.88-2.9,1.3-1.2.42-2.66.63-4.36.63h0c-.7,0-1.47-.08-2.31-.23-.84-.16-1.63-.47-2.38-.95-.74-.48-1.35-1.19-1.82-2.14h0c-.17-.42-.31-.92-.42-1.51s-.2-1.36-.25-2.31c-.06-.95-.08-2.17-.08-3.65h0v-8.52h2.69v8.6c0,1.85.05,3.25.14,4.21.1.97.32,1.72.65,2.25h0c.25.36.68.74,1.28,1.13.6.39,1.51.59,2.71.59h0c.67,0,1.29-.06,1.85-.17.56-.11,1.06-.27,1.51-.46h0v-16.16h2.69v15.32ZM799.12,345.1h3.53v5.04h3.99v2.6h-3.99v5.41c0,.78.02,1.66.06,2.64.04.98.33,1.92.86,2.81h0c.39.64,1,1.31,1.82,2.01.83.7,1.61,1.27,2.33,1.72h0l-1.59,2.1c-.81-.45-1.63-1.01-2.46-1.68-.82-.67-1.5-1.37-2.03-2.1h0c-.76-1.06-1.23-2.13-1.41-3.21-.18-1.07-.27-2.14-.27-3.21h0v-11.5l-.84-2.64Z"/>
      </g>
      <path class="cls-1" d="M618.02,24.51c0-13.67-11.09-24.51-24.51-24.51h-188.56c-13.67,0-24.51,11.09-24.51,24.51v114.27c0,13.67,11.09,24.51,24.51,24.51h134.65l42.05,42.3c2.32,2.32,6.19.77,6.19-2.58v-39.72h5.42c13.67,0,24.51-11.09,24.51-24.51V24.51h.26ZM490.08,79.45c0,12.38-1.03,22.44-2.84,29.41-.52,1.55-1.29,2.84-1.81,4.39h-20.89c.26-.26.77-.52,1.03-1.03,3.1-4.9,4.9-11.87,5.16-20.64h-8c-5.42,0-10.06-5.16-10.06-11.61v-20.12c0-6.45,4.39-11.61,10.06-11.61h27.34v31.21ZM545.54,79.45c0,12.38-1.03,22.44-2.84,29.41-.52,1.55-1.29,2.84-1.81,4.39h-20.89c.26-.26.77-.52,1.03-1.03,3.1-4.9,4.9-11.87,5.16-20.64h-8c-5.42,0-10.06-5.16-10.06-11.61v-20.12c0-6.45,4.39-11.61,10.06-11.61h27.34v31.21Z"/>
      <g>
        <rect class="cls-1" x="638.22" y="195.91" width="360.25" height="8.26"/>
        <rect class="cls-1" y="195.91" width="360.25" height="8.26"/>
        <rect class="cls-1" x="638.22" y="179.39" width="360.25" height="8.26"/>
        <rect class="cls-1" y="179.39" width="360.25" height="8.26"/>
      </g>
    </g>
  </g>
</svg>