<svg xmlns="http://www.w3.org/2000/svg" version="1.1" xmlns:xlink="http://www.w3.org/1999/xlink" xmlns:svgjs="http://svgjs.dev/svgjs" width="1500" height="568" viewBox="0 0 1500 568"><g transform="matrix(1,0,0,1,-0.9090909090909918,-0.5916099181523577)"><svg viewBox="0 0 396 150" data-background-color="#000000" preserveAspectRatio="xMidYMid meet" height="568" width="1500" xmlns="http://www.w3.org/2000/svg" xmlns:xlink="http://www.w3.org/1999/xlink"><g id="tight-bounds" transform="matrix(1,0,0,1,0.2400000000000091,0.15623501359657155)"><svg viewBox="0 0 395.52 149.68752997280686" height="149.68752997280686" width="395.52"><g><svg viewBox="0 0 395.52 149.68752997280686" height="149.68752997280686" width="395.52"><g><svg viewBox="0 0 395.52 149.68752997280686" height="149.68752997280686" width="395.52"><g transform="matrix(1,0,0,1,0,90.44234391131704)"><svg viewBox="0 0 395.52 59.24518606148982" height="59.24518606148982" width="395.52"><g id="textblocktransform"><svg viewBox="0 0 395.52 59.24518606148982" height="59.24518606148982" width="395.52" id="textblock"><g><svg viewBox="0 0 395.52 36.28279356791075" height="36.28279356791075" width="395.52"><g transform="matrix(1,0,0,1,0,0)"><svg width="395.52" viewBox="3.13 -36.79 411.41 37.74" height="36.28279356791075" data-palette-color="#ffffff"><path d="M3.13-17.14L3.13-17.14Q3.13-22.75 5.18-26.84 7.23-30.93 11.25-33.17 15.28-35.4 21.22-35.4L21.22-35.4Q22.58-35.4 24.41-35.24 26.25-35.08 27.99-34.72 29.74-34.35 30.88-33.74 32.03-33.13 32.03-32.2L32.03-32.2Q32.03-31.76 31.74-31.25L31.74-31.25 29.69-27.81Q28.61-28.42 27.03-29.44 25.44-30.47 23.49-31.31 21.53-32.15 19.34-32.15L19.34-32.15Q16.46-32.15 14.54-30.82 12.62-29.49 11.51-27.33 10.4-25.17 9.94-22.63 9.47-20.09 9.47-17.7L9.47-17.7Q9.47-13.77 10.9-10.38 12.33-6.98 15.21-4.9 18.09-2.81 22.44-2.81L22.44-2.81Q24.24-2.81 26.04-3.11 27.83-3.42 29.3-3.83 30.76-4.25 31.64-4.55 32.52-4.86 32.52-4.86L32.52-4.86 33.52-2.95Q30.79-0.81 27.45 0.07 24.12 0.95 20.63 0.95L20.63 0.95Q15.28 0.95 11.35-1.26 7.42-3.47 5.27-7.53 3.13-11.6 3.13-17.14ZM40.45-33.5L40.45-33.5Q40.45-34.89 41.46-35.84 42.48-36.79 43.89-36.79L43.89-36.79Q45.33-36.79 46.34-35.84 47.34-34.89 47.34-33.5L47.34-33.5Q47.34-32.15 46.34-31.2 45.33-30.25 43.89-30.25L43.89-30.25Q42.48-30.25 41.46-31.2 40.45-32.15 40.45-33.5ZM46.7-24.15L46.7-2.44 50.95-2.44 50.95-0.61Q50.12-0.15 48.22 0.15 46.31 0.44 44.55 0.44L44.55 0.44Q43.06 0.44 42.05 0.01 41.04-0.42 41.04-1.9L41.04-1.9 41.04-22.61 36.74-22.61 36.74-24.44Q37.42-24.76 38.79-24.98 40.16-25.2 41.75-25.32 43.33-25.44 44.6-25.44L44.6-25.44Q45.6-25.44 46.15-25.28 46.7-25.12 46.7-24.15L46.7-24.15ZM73.68-3.39L74.46-1.71Q72.75-0.66 70.95 0.05 69.16 0.76 66.43 0.76L66.43 0.76Q62.86 0.76 60.79-1.37 58.71-3.49 58.71-7.25L58.71-7.25 58.71-22 53.66-22 53.66-23.1Q53.66-24.19 54.13-24.6 54.61-25 55.66-25L55.66-25 58.71-25 58.71-30.81Q58.71-32.15 59.52-32.63 60.32-33.11 61.57-33.11L61.57-33.11Q62.35-33.11 63.37-32.92 64.4-32.74 65.06-32.35L65.06-32.35Q64.91-31.67 64.64-29.98 64.37-28.3 64.37-25L64.37-25 72.87-25 72.87-23.95Q72.87-22.88 72.39-22.44 71.92-22 70.87-22L70.87-22 64.37-22 64.37-7.69Q64.37-2.15 68.43-2.15L68.43-2.15Q69.65-2.15 70.87-2.49 72.09-2.83 72.9-3.15 73.7-3.47 73.68-3.39L73.68-3.39ZM94.35-1.9L94.35-2.15Q94.35-2.17 93.66-1.73 92.96-1.29 91.78-0.71 90.59-0.12 89.15 0.32 87.71 0.76 86.2 0.76L86.2 0.76Q84.07 0.76 82.27-0.01 80.46-0.78 79.36-2.4 78.26-4.03 78.26-6.54L78.26-6.54Q78.26-9.35 79.89-11.04 81.51-12.72 84.37-13.46 87.22-14.21 90.91-14.21L90.91-14.21 94.35-14.21 94.35-16.04Q94.35-17.94 94.11-19.58 93.86-21.22 93.05-22.2 92.23-23.19 90.5-23.19L90.5-23.19Q88.86-23.19 87.19-22.44 85.51-21.68 84-20.61 82.49-19.53 81.27-18.55L81.27-18.55 79.26-21.24Q78.9-21.68 78.9-22.14L78.9-22.14Q78.9-22.95 79.9-23.61 80.9-24.27 82.46-24.76 84.03-25.24 85.77-25.5 87.52-25.76 89.01-25.76L89.01-25.76Q92.01-25.76 94.51-24.79 97.01-23.83 98.52-21.69 100.02-19.56 100.02-16.04L100.02-16.04 100.02-2.44 104.26-2.44 104.26-0.61Q103.43-0.15 101.53 0.15 99.63 0.44 97.84 0.44L97.84 0.44Q96.65 0.44 95.54 0.04 94.43-0.37 94.35-1.9L94.35-1.9ZM87.91-2.86L87.91-2.86Q88.76-2.86 89.86-3.08 90.96-3.3 91.98-3.6 93.01-3.91 93.68-4.13 94.35-4.35 94.35-4.35L94.35-4.35 94.35-11.21 90.25-11.21Q89.03-11.21 87.53-10.88 86.03-10.55 84.94-9.61 83.85-8.67 83.85-6.81L83.85-6.81Q83.85-5.08 84.9-3.97 85.95-2.86 87.91-2.86ZM126.16-3.39L126.94-1.71Q125.23-0.66 123.44 0.05 121.65 0.76 118.91 0.76L118.91 0.76Q115.35 0.76 113.27-1.37 111.2-3.49 111.2-7.25L111.2-7.25 111.2-22 106.14-22 106.14-23.1Q106.14-24.19 106.62-24.6 107.09-25 108.14-25L108.14-25 111.2-25 111.2-30.81Q111.2-32.15 112-32.63 112.81-33.11 114.05-33.11L114.05-33.11Q114.83-33.11 115.86-32.92 116.88-32.74 117.54-32.35L117.54-32.35Q117.4-31.67 117.13-29.98 116.86-28.3 116.86-25L116.86-25 125.36-25 125.36-23.95Q125.36-22.88 124.88-22.44 124.4-22 123.35-22L123.35-22 116.86-22 116.86-7.69Q116.86-2.15 120.91-2.15L120.91-2.15Q122.13-2.15 123.35-2.49 124.57-2.83 125.38-3.15 126.19-3.47 126.16-3.39L126.16-3.39ZM133.22-33.5L133.22-33.5Q133.22-34.89 134.23-35.84 135.24-36.79 136.66-36.79L136.66-36.79Q138.1-36.79 139.1-35.84 140.1-34.89 140.1-33.5L140.1-33.5Q140.1-32.15 139.1-31.2 138.1-30.25 136.66-30.25L136.66-30.25Q135.24-30.25 134.23-31.2 133.22-32.15 133.22-33.5ZM139.47-24.15L139.47-2.44 143.71-2.44 143.71-0.61Q142.88-0.15 140.98 0.15 139.07 0.44 137.32 0.44L137.32 0.44Q135.83 0.44 134.81 0.01 133.8-0.42 133.8-1.9L133.8-1.9 133.8-22.61 129.5-22.61 129.5-24.44Q130.19-24.76 131.55-24.98 132.92-25.2 134.51-25.32 136.1-25.44 137.37-25.44L137.37-25.44Q138.37-25.44 138.92-25.28 139.47-25.12 139.47-24.15L139.47-24.15ZM175.06-12.45L175.06-12.45Q175.06-8.47 173.26-5.51 171.47-2.54 168.44-0.89 165.41 0.76 161.68 0.76L161.68 0.76Q157.92 0.76 154.87-0.9 151.82-2.56 150.02-5.53 148.23-8.5 148.23-12.45L148.23-12.45Q148.23-16.46 150.02-19.45 151.82-22.44 154.87-24.1 157.92-25.76 161.68-25.76L161.68-25.76Q165.44-25.76 168.47-24.1 171.49-22.44 173.28-19.45 175.06-16.46 175.06-12.45ZM154.26-12.5L154.26-12.5Q154.26-9.74 154.87-7.3 155.48-4.86 157.09-3.36 158.7-1.86 161.68-1.86L161.68-1.86Q164.66-1.86 166.24-3.36 167.83-4.86 168.43-7.3 169.03-9.74 169.03-12.5L169.03-12.5Q169.03-15.28 168.43-17.71 167.83-20.14 166.24-21.64 164.66-23.14 161.68-23.14L161.68-23.14Q158.7-23.14 157.09-21.64 155.48-20.14 154.87-17.71 154.26-15.28 154.26-12.5ZM183.82-1.9L183.82-22.56 179.52-22.56 179.52-24.39Q180.21-24.71 181.57-24.93 182.94-25.15 184.53-25.27 186.12-25.39 187.38-25.39L187.38-25.39Q188.39-25.39 188.94-25.23 189.48-25.07 189.48-24.1L189.48-24.1 189.48-22.9Q189.97-23.07 191.54-23.77 193.1-24.46 195.28-25.11 197.47-25.76 199.79-25.76L199.79-25.76Q202.62-25.76 204.06-24.74 205.5-23.73 206.01-21.98 206.53-20.24 206.53-17.99L206.53-17.99 206.53-2.44 210.77-2.44 210.77-0.61Q209.94-0.15 208.04 0.15 206.13 0.44 204.38 0.44L204.38 0.44Q202.89 0.44 201.89 0.01 200.89-0.42 200.89-1.9L200.89-1.9 200.89-17.5Q200.89-19.97 200.23-21.06 199.57-22.14 197.47-22.14L197.47-22.14Q196.47-22.14 195.16-21.94 193.85-21.73 192.6-21.46 191.34-21.19 190.47-20.97 189.61-20.75 189.48-20.7L189.48-20.7 189.48-7.35Q189.48-4.35 189.75-2.69 190.02-1.03 190.17-0.34L190.17-0.34Q189.51 0.02 188.48 0.23 187.46 0.44 186.68 0.44L186.68 0.44Q185.43 0.44 184.63-0.06 183.82-0.56 183.82-1.9L183.82-1.9ZM241.63-20.85L241.63-20.85Q243.83-19.92 246.06-18.86 248.29-17.8 250.16-16.46 252.03-15.11 253.15-13.32 254.27-11.52 254.27-9.11L254.27-9.11Q254.27-5.93 252.65-3.69 251.03-1.44 248.34-0.24 245.66 0.95 242.48 0.95L242.48 0.95Q239.31 0.95 236.12 0.13 232.94-0.68 230.13-2.54L230.13-2.54Q229.59-2.88 229.08-3.45 228.57-4.03 228.57-4.64L228.57-4.64Q228.57-5.15 228.93-5.54L228.93-5.54 231.42-8.5Q232.99-7.25 234.94-5.79 236.89-4.32 238.93-3.26 240.97-2.2 242.73-2.2L242.73-2.2Q244.22-2.2 245.55-2.83 246.88-3.47 247.72-4.63 248.56-5.79 248.56-7.4L248.56-7.4Q248.56-9.45 247.19-11.04 245.83-12.62 243.67-13.87 241.51-15.11 239.11-16.09L239.11-16.09Q235.18-17.75 233.17-19.43 231.15-21.12 230.46-22.79 229.76-24.46 229.76-26.05L229.76-26.05Q229.76-28.76 231.06-30.57 232.35-32.37 234.45-33.44 236.55-34.5 239.02-34.95 241.48-35.4 243.83-35.4L243.83-35.4Q244.85-35.4 246.35-35.27 247.85-35.13 249.34-34.83 250.83-34.52 251.82-33.98 252.81-33.45 252.81-32.64L252.81-32.64Q252.81-32.25 252.52-31.69L252.52-31.69 250.56-28.34Q248.42-29.59 245.95-30.87 243.48-32.15 240.58-32.15L240.58-32.15Q238.5-32.15 236.94-30.87 235.38-29.59 235.38-27L235.38-27Q235.38-25.54 236.27-24.4 237.16-23.27 238.59-22.41 240.02-21.56 241.63-20.85ZM277.44-3.39L278.22-1.71Q276.51-0.66 274.72 0.05 272.92 0.76 270.19 0.76L270.19 0.76Q266.63 0.76 264.55-1.37 262.48-3.49 262.48-7.25L262.48-7.25 262.48-22 257.42-22 257.42-23.1Q257.42-24.19 257.9-24.6 258.37-25 259.42-25L259.42-25 262.48-25 262.48-30.81Q262.48-32.15 263.28-32.63 264.09-33.11 265.33-33.11L265.33-33.11Q266.11-33.11 267.14-32.92 268.16-32.74 268.82-32.35L268.82-32.35Q268.68-31.67 268.41-29.98 268.14-28.3 268.14-25L268.14-25 276.64-25 276.64-23.95Q276.64-22.88 276.16-22.44 275.68-22 274.63-22L274.63-22 268.14-22 268.14-7.69Q268.14-2.15 272.19-2.15L272.19-2.15Q273.41-2.15 274.63-2.49 275.85-2.83 276.66-3.15 277.47-3.47 277.44-3.39L277.44-3.39ZM298.12-1.9L298.12-2.15Q298.12-2.17 297.42-1.73 296.73-1.29 295.54-0.71 294.36-0.12 292.92 0.32 291.48 0.76 289.96 0.76L289.96 0.76Q287.84 0.76 286.03-0.01 284.23-0.78 283.13-2.4 282.03-4.03 282.03-6.54L282.03-6.54Q282.03-9.35 283.65-11.04 285.28-12.72 288.13-13.46 290.99-14.21 294.67-14.21L294.67-14.21 298.12-14.21 298.12-16.04Q298.12-17.94 297.87-19.58 297.63-21.22 296.81-22.2 295.99-23.19 294.26-23.19L294.26-23.19Q292.62-23.19 290.95-22.44 289.28-21.68 287.77-20.61 286.25-19.53 285.03-18.55L285.03-18.55 283.03-21.24Q282.66-21.68 282.66-22.14L282.66-22.14Q282.66-22.95 283.66-23.61 284.66-24.27 286.23-24.76 287.79-25.24 289.54-25.5 291.28-25.76 292.77-25.76L292.77-25.76Q295.77-25.76 298.28-24.79 300.78-23.83 302.28-21.69 303.78-19.56 303.78-16.04L303.78-16.04 303.78-2.44 308.03-2.44 308.03-0.61Q307.2-0.15 305.29 0.15 303.39 0.44 301.61 0.44L301.61 0.44Q300.41 0.44 299.3 0.04 298.19-0.37 298.12-1.9L298.12-1.9ZM291.67-2.86L291.67-2.86Q292.53-2.86 293.62-3.08 294.72-3.3 295.75-3.6 296.77-3.91 297.45-4.13 298.12-4.35 298.12-4.35L298.12-4.35 298.12-11.21 294.02-11.21Q292.79-11.21 291.29-10.88 289.79-10.55 288.71-9.61 287.62-8.67 287.62-6.81L287.62-6.81Q287.62-5.08 288.67-3.97 289.72-2.86 291.67-2.86ZM329.93-3.39L330.71-1.71Q329-0.66 327.2 0.05 325.41 0.76 322.68 0.76L322.68 0.76Q319.11 0.76 317.04-1.37 314.96-3.49 314.96-7.25L314.96-7.25 314.96-22 309.91-22 309.91-23.1Q309.91-24.19 310.38-24.6 310.86-25 311.91-25L311.91-25 314.96-25 314.96-30.81Q314.96-32.15 315.77-32.63 316.57-33.11 317.82-33.11L317.82-33.11Q318.6-33.11 319.62-32.92 320.65-32.74 321.31-32.35L321.31-32.35Q321.16-31.67 320.89-29.98 320.62-28.3 320.62-25L320.62-25 329.12-25 329.12-23.95Q329.12-22.88 328.64-22.44 328.17-22 327.12-22L327.12-22 320.62-22 320.62-7.69Q320.62-2.15 324.68-2.15L324.68-2.15Q325.9-2.15 327.12-2.49 328.34-2.83 329.14-3.15 329.95-3.47 329.93-3.39L329.93-3.39ZM336.98-33.5L336.98-33.5Q336.98-34.89 337.99-35.84 339.01-36.79 340.42-36.79L340.42-36.79Q341.86-36.79 342.86-35.84 343.86-34.89 343.86-33.5L343.86-33.5Q343.86-32.15 342.86-31.2 341.86-30.25 340.42-30.25L340.42-30.25Q339.01-30.25 337.99-31.2 336.98-32.15 336.98-33.5ZM343.23-24.15L343.23-2.44 347.48-2.44 347.48-0.61Q346.65-0.15 344.74 0.15 342.84 0.44 341.08 0.44L341.08 0.44Q339.59 0.44 338.58 0.01 337.57-0.42 337.57-1.9L337.57-1.9 337.57-22.61 333.27-22.61 333.27-24.44Q333.95-24.76 335.32-24.98 336.69-25.2 338.27-25.32 339.86-25.44 341.13-25.44L341.13-25.44Q342.13-25.44 342.68-25.28 343.23-25.12 343.23-24.15L343.23-24.15ZM378.82-12.45L378.82-12.45Q378.82-8.47 377.03-5.51 375.23-2.54 372.21-0.89 369.18 0.76 365.44 0.76L365.44 0.76Q361.68 0.76 358.63-0.9 355.58-2.56 353.79-5.53 351.99-8.5 351.99-12.45L351.99-12.45Q351.99-16.46 353.79-19.45 355.58-22.44 358.63-24.1 361.68-25.76 365.44-25.76L365.44-25.76Q369.2-25.76 372.23-24.1 375.26-22.44 377.04-19.45 378.82-16.46 378.82-12.45ZM358.02-12.5L358.02-12.5Q358.02-9.74 358.63-7.3 359.24-4.86 360.85-3.36 362.47-1.86 365.44-1.86L365.44-1.86Q368.42-1.86 370.01-3.36 371.6-4.86 372.19-7.3 372.79-9.74 372.79-12.5L372.79-12.5Q372.79-15.28 372.19-17.71 371.6-20.14 370.01-21.64 368.42-23.14 365.44-23.14L365.44-23.14Q362.47-23.14 360.85-21.64 359.24-20.14 358.63-17.71 358.02-15.28 358.02-12.5ZM387.58-1.9L387.58-22.56 383.29-22.56 383.29-24.39Q383.97-24.71 385.34-24.93 386.71-25.15 388.29-25.27 389.88-25.39 391.15-25.39L391.15-25.39Q392.15-25.39 392.7-25.23 393.25-25.07 393.25-24.1L393.25-24.1 393.25-22.9Q393.74-23.07 395.3-23.77 396.86-24.46 399.05-25.11 401.23-25.76 403.55-25.76L403.55-25.76Q406.38-25.76 407.82-24.74 409.26-23.73 409.78-21.98 410.29-20.24 410.29-17.99L410.29-17.99 410.29-2.44 414.54-2.44 414.54-0.61Q413.71-0.15 411.8 0.15 409.9 0.44 408.14 0.44L408.14 0.44Q406.65 0.44 405.65 0.01 404.65-0.42 404.65-1.9L404.65-1.9 404.65-17.5Q404.65-19.97 403.99-21.06 403.33-22.14 401.23-22.14L401.23-22.14Q400.23-22.14 398.92-21.94 397.62-21.73 396.36-21.46 395.1-21.19 394.24-20.97 393.37-20.75 393.25-20.7L393.25-20.7 393.25-7.35Q393.25-4.35 393.52-2.69 393.79-1.03 393.93-0.34L393.93-0.34Q393.27 0.02 392.25 0.23 391.22 0.44 390.44 0.44L390.44 0.44Q389.2 0.44 388.39-0.06 387.58-0.56 387.58-1.9L387.58-1.9Z" opacity="1" transform="matrix(1,0,0,1,0,0)" fill="#ffffff" class="wordmark-text-0" data-fill-palette-color="primary" id="text-0"></path></svg></g></svg></g><g transform="matrix(1,0,0,1,75.54432,44.84829034224885)"><svg viewBox="0 0 244.43135999999998 14.396895719240968" height="14.396895719240968" width="244.43135999999998"><g transform="matrix(1,0,0,1,0,0)"><svg width="244.43135999999998" viewBox="1.35 -32.75 735.05 43.300000000000004" height="14.396895719240968" data-palette-color="#e9f443"><path d="M1.35-30.65L4.8-31.3 10.1-3.55Q10.9-3.7 11.95-3.8 13-3.9 13.8-3.95L13.8-3.95 13.8-22.5 17.4-22.5 17.4-3.95Q18.25-3.9 19.33-3.8 20.4-3.7 21.1-3.55L21.1-3.55 26.4-31.3 29.85-30.65 23.9 0.5Q22.8 0.15 21.28-0.13 19.75-0.4 18.25-0.58 16.75-0.75 15.6-0.75L15.6-0.75Q14.45-0.75 12.95-0.58 11.45-0.4 9.95-0.13 8.45 0.15 7.3 0.5L7.3 0.5 1.35-30.65ZM37.2-32.75L37.2-22.35Q38.1-22.65 39.17-22.83 40.25-23 41.4-23L41.4-23Q42.65-23 44.15-22.73 45.65-22.45 47-21.63 48.35-20.8 49.15-19.05L49.15-19.05Q49.5-18.3 49.7-17.25 49.9-16.2 49.97-14.53 50.05-12.85 50.05-10.15L50.05-10.15 50.05 0 46.85 0 46.85-10.25Q46.85-13.55 46.7-15.28 46.55-17 45.9-17.95L45.9-17.95Q45.5-18.65 44.42-19.33 43.35-20 41.2-20L41.2-20Q39.95-20 38.97-19.8 38-19.6 37.2-19.25L37.2-19.25 37.2 0 34 0 34-29.6 33-32.75 37.2-32.75ZM71.05-10.35L58.85-10.35 58.85-3.8Q60-3 61.35-2.75 62.7-2.5 63.85-2.5L63.85-2.5Q66-2.5 67.72-2.98 69.45-3.45 71.05-4.55L71.05-4.55 71.05-1.2Q69.55-0.3 67.77 0.1 66 0.5 63.95 0.5L63.95 0.5Q60.75 0.5 58.32-0.4 55.9-1.3 53.9-3.05L53.9-3.05 55.65-5.1 55.65-13.25Q55.65-14.2 55.67-15.5 55.7-16.8 56.1-18.2 56.5-19.6 57.55-20.8L57.55-20.8Q58.9-22.3 60.47-22.65 62.05-23 63.3-23L63.3-23Q64.59-23 66.17-22.65 67.75-22.3 69.05-20.8L69.05-20.8Q70.09-19.6 70.52-18.2 70.95-16.8 71-15.5 71.05-14.2 71.05-13.25L71.05-13.25 71.05-10.35ZM58.85-13.35L67.55-13.35Q67.55-14.45 67.45-15.85 67.34-17.25 66.65-18.3L66.65-18.3Q66.34-18.8 65.55-19.4 64.75-20 63.2-20L63.2-20Q61.7-20 60.87-19.4 60.05-18.8 59.7-18.3L59.7-18.3Q59.05-17.25 58.95-15.85 58.85-14.45 58.85-13.35L58.85-13.35ZM76.69 0L76.69-16.65 75.24-18.9Q77.44-20.75 80.12-21.68 82.79-22.6 85.54-23L85.54-23 86.09-20Q83.69-19.65 82.24-19.18 80.79-18.7 79.89-18.2L79.89-18.2 79.89 0 76.69 0ZM104.74-10.35L92.54-10.35 92.54-3.8Q93.69-3 95.04-2.75 96.39-2.5 97.54-2.5L97.54-2.5Q99.69-2.5 101.42-2.98 103.14-3.45 104.74-4.55L104.74-4.55 104.74-1.2Q103.24-0.3 101.47 0.1 99.69 0.5 97.64 0.5L97.64 0.5Q94.44 0.5 92.02-0.4 89.59-1.3 87.59-3.05L87.59-3.05 89.34-5.1 89.34-13.25Q89.34-14.2 89.37-15.5 89.39-16.8 89.79-18.2 90.19-19.6 91.24-20.8L91.24-20.8Q92.59-22.3 94.17-22.65 95.74-23 96.99-23L96.99-23Q98.29-23 99.87-22.65 101.44-22.3 102.74-20.8L102.74-20.8Q103.79-19.6 104.22-18.2 104.64-16.8 104.69-15.5 104.74-14.2 104.74-13.25L104.74-13.25 104.74-10.35ZM92.54-13.35L101.24-13.35Q101.24-14.45 101.14-15.85 101.04-17.25 100.34-18.3L100.34-18.3Q100.04-18.8 99.24-19.4 98.44-20 96.89-20L96.89-20Q95.39-20 94.57-19.4 93.74-18.8 93.39-18.3L93.39-18.3Q92.74-17.25 92.64-15.85 92.54-14.45 92.54-13.35L92.54-13.35ZM121.64-19.85L121.89-23Q123.99-23 126.09-22.63 128.19-22.25 129.94-21.33 131.69-20.4 132.74-18.68 133.79-16.95 133.79-14.25L133.79-14.25 133.79-4.25 135.14-1.95Q132.84-0.65 130.56-0.08 128.29 0.5 126.39 0.5L126.39 0.5Q123.94 0.5 122.44-0.13 120.94-0.75 120.09-1.55L120.09-1.55Q119.29-2.4 118.69-3.68 118.09-4.95 118.09-6.55L118.09-6.55Q118.09-9.05 119.14-10.68 120.19-12.3 121.96-13.2 123.74-14.1 125.96-14.48 128.19-14.85 130.59-14.85L130.59-14.85Q130.49-16.5 129.61-17.48 128.74-18.45 127.41-18.95 126.09-19.45 124.59-19.63 123.09-19.8 121.64-19.85L121.64-19.85ZM130.59-3.35L130.59-11.85Q129.39-11.85 127.84-11.7 126.29-11.55 124.84-11.08 123.39-10.6 122.44-9.6 121.49-8.6 121.49-6.9L121.49-6.9Q121.49-5.75 121.84-4.98 122.19-4.2 122.64-3.8L122.64-3.8Q123.44-3 124.46-2.75 125.49-2.5 126.49-2.5L126.49-2.5Q127.69-2.5 128.69-2.75 129.69-3 130.59-3.35L130.59-3.35ZM138.58-32.75L142.78-32.75 142.78-12.95Q142.78-10.2 143.06-8.33 143.33-6.45 144.38-5 145.43-3.55 147.73-2.15L147.73-2.15 146.08 0.5Q143.33-0.95 141.93-2.78 140.53-4.6 140.06-7.05 139.58-9.5 139.58-12.95L139.58-12.95 139.58-29.6 138.58-32.75ZM149.43-32.75L153.63-32.75 153.63-12.95Q153.63-10.2 153.91-8.33 154.18-6.45 155.23-5 156.28-3.55 158.58-2.15L158.58-2.15 156.93 0.5Q154.18-0.95 152.78-2.78 151.38-4.6 150.91-7.05 150.43-9.5 150.43-12.95L150.43-12.95 150.43-29.6 149.43-32.75ZM169.13-22.35L172.28-23 176.03-7Q176.43-5.3 177.15-3.95 177.88-2.6 179.53-2.5L179.53-2.5Q179.68-2.5 179.85-2.5 180.03-2.5 180.23-2.55L180.23-2.55 184.98-23 188.13-22.35 180.43 10.55 177.33 9.85 179.48 0.5Q176.83 0.4 175.28-1.25 173.73-2.9 172.93-6.25L172.93-6.25 169.13-22.35ZM191.92-1.75L191.92-13.25Q191.92-14.2 191.97-15.5 192.02-16.8 192.45-18.2 192.87-19.6 193.97-20.8L193.97-20.8Q195.37-22.3 197.05-22.65 198.72-23 199.97-23L199.97-23Q201.27-23 202.92-22.65 204.57-22.3 205.97-20.8L205.97-20.8Q207.07-19.6 207.5-18.2 207.92-16.8 207.97-15.5 208.02-14.2 208.02-13.25L208.02-13.25 208.02-5.1 209.72-3.05Q207.72-1.3 205.32-0.4 202.92 0.5 199.97 0.5L199.97 0.5Q197.07 0.5 195.1-0.23 193.12-0.95 191.92-1.75L191.92-1.75ZM195.12-13.35L195.12-3.8Q196.27-3 197.57-2.75 198.87-2.5 199.97-2.5L199.97-2.5Q201.07-2.5 202.4-2.75 203.72-3 204.82-3.8L204.82-3.8 204.82-13.35Q204.82-14.45 204.7-15.85 204.57-17.25 203.82-18.3L203.82-18.3Q203.47-18.8 202.57-19.4 201.67-20 199.97-20L199.97-20Q198.27-20 197.4-19.4 196.52-18.8 196.12-18.3L196.12-18.3Q195.37-17.25 195.25-15.85 195.12-14.45 195.12-13.35L195.12-13.35ZM229.67-4.25L230.87-1.8Q229.57-1 227.42-0.25 225.27 0.5 222.22 0.5L222.22 0.5Q220.97 0.5 219.47 0.23 217.97-0.05 216.65-0.9 215.32-1.75 214.47-3.45L214.47-3.45Q214.17-4.2 213.97-5.25 213.77-6.3 213.67-8 213.57-9.7 213.57-12.35L213.57-12.35 213.57-22.5 216.77-22.5 216.77-12.25Q216.77-8.95 216.95-7.23 217.12-5.5 217.72-4.55L217.72-4.55Q218.17-3.9 219.25-3.2 220.32-2.5 222.47-2.5L222.47-2.5Q223.67-2.5 224.67-2.7 225.67-2.9 226.47-3.25L226.47-3.25 226.47-22.5 229.67-22.5 229.67-4.25ZM236.02 0L236.02-16.65 234.57-18.9Q236.77-20.75 239.44-21.68 242.12-22.6 244.87-23L244.87-23 245.42-20Q243.02-19.65 241.57-19.18 240.12-18.7 239.22-18.2L239.22-18.2 239.22 0 236.02 0ZM258.76 0L258.76-16.65 257.31-18.9Q259.51-20.75 262.19-21.68 264.86-22.6 267.61-23L267.61-23 268.16-20Q265.76-19.65 264.31-19.18 262.86-18.7 261.96-18.2L261.96-18.2 261.96 0 258.76 0ZM286.81-10.35L274.61-10.35 274.61-3.8Q275.76-3 277.11-2.75 278.46-2.5 279.61-2.5L279.61-2.5Q281.76-2.5 283.49-2.98 285.21-3.45 286.81-4.55L286.81-4.55 286.81-1.2Q285.31-0.3 283.54 0.1 281.76 0.5 279.71 0.5L279.71 0.5Q276.51 0.5 274.09-0.4 271.66-1.3 269.66-3.05L269.66-3.05 271.41-5.1 271.41-13.25Q271.41-14.2 271.44-15.5 271.46-16.8 271.86-18.2 272.26-19.6 273.31-20.8L273.31-20.8Q274.66-22.3 276.24-22.65 277.81-23 279.06-23L279.06-23Q280.36-23 281.94-22.65 283.51-22.3 284.81-20.8L284.81-20.8Q285.86-19.6 286.29-18.2 286.71-16.8 286.76-15.5 286.81-14.2 286.81-13.25L286.81-13.25 286.81-10.35ZM274.61-13.35L283.31-13.35Q283.31-14.45 283.21-15.85 283.11-17.25 282.41-18.3L282.41-18.3Q282.11-18.8 281.31-19.4 280.51-20 278.96-20L278.96-20Q277.46-20 276.64-19.4 275.81-18.8 275.46-18.3L275.46-18.3Q274.81-17.25 274.71-15.85 274.61-14.45 274.61-13.35L274.61-13.35ZM292.31 0L292.31-26.2 290.86-28.45Q293.21-30.5 296.51-31.53 299.81-32.55 303.16-32.75L303.16-32.75 303.41-29.75Q301.36-29.6 299.18-29.1 297.01-28.6 295.51-27.75L295.51-27.75 295.51-22.5 300.11-22.5 300.11-19.5 295.51-19.5 295.51 0 292.31 0ZM319.16-10.35L306.96-10.35 306.96-3.8Q308.11-3 309.46-2.75 310.81-2.5 311.96-2.5L311.96-2.5Q314.11-2.5 315.83-2.98 317.56-3.45 319.16-4.55L319.16-4.55 319.16-1.2Q317.66-0.3 315.88 0.1 314.11 0.5 312.06 0.5L312.06 0.5Q308.86 0.5 306.43-0.4 304.01-1.3 302.01-3.05L302.01-3.05 303.76-5.1 303.76-13.25Q303.76-14.2 303.78-15.5 303.81-16.8 304.21-18.2 304.61-19.6 305.66-20.8L305.66-20.8Q307.01-22.3 308.58-22.65 310.16-23 311.41-23L311.41-23Q312.71-23 314.28-22.65 315.86-22.3 317.16-20.8L317.16-20.8Q318.21-19.6 318.63-18.2 319.06-16.8 319.11-15.5 319.16-14.2 319.16-13.25L319.16-13.25 319.16-10.35ZM306.96-13.35L315.66-13.35Q315.66-14.45 315.56-15.85 315.46-17.25 314.76-18.3L314.76-18.3Q314.46-18.8 313.66-19.4 312.86-20 311.31-20L311.31-20Q309.81-20 308.98-19.4 308.16-18.8 307.81-18.3L307.81-18.3Q307.16-17.25 307.06-15.85 306.96-14.45 306.96-13.35L306.96-13.35ZM324.8 0L324.8-16.65 323.35-18.9Q325.55-20.75 328.23-21.68 330.9-22.6 333.65-23L333.65-23 334.2-20Q331.8-19.65 330.35-19.18 328.9-18.7 328-18.2L328-18.2 328 0 324.8 0ZM352.85-10.35L340.65-10.35 340.65-3.8Q341.8-3 343.15-2.75 344.5-2.5 345.65-2.5L345.65-2.5Q347.8-2.5 349.53-2.98 351.25-3.45 352.85-4.55L352.85-4.55 352.85-1.2Q351.35-0.3 349.58 0.1 347.8 0.5 345.75 0.5L345.75 0.5Q342.55 0.5 340.13-0.4 337.7-1.3 335.7-3.05L335.7-3.05 337.45-5.1 337.45-13.25Q337.45-14.2 337.48-15.5 337.5-16.8 337.9-18.2 338.3-19.6 339.35-20.8L339.35-20.8Q340.7-22.3 342.28-22.65 343.85-23 345.1-23L345.1-23Q346.4-23 347.98-22.65 349.55-22.3 350.85-20.8L350.85-20.8Q351.9-19.6 352.33-18.2 352.75-16.8 352.8-15.5 352.85-14.2 352.85-13.25L352.85-13.25 352.85-10.35ZM340.65-13.35L349.35-13.35Q349.35-14.45 349.25-15.85 349.15-17.25 348.45-18.3L348.45-18.3Q348.15-18.8 347.35-19.4 346.55-20 345-20L345-20Q343.5-20 342.68-19.4 341.85-18.8 341.5-18.3L341.5-18.3Q340.85-17.25 340.75-15.85 340.65-14.45 340.65-13.35L340.65-13.35ZM358.5-18.25L357.35-20.7Q358.65-21.5 360.8-22.25 362.95-23 365.95-23L365.95-23Q367.25-23 368.72-22.73 370.2-22.45 371.55-21.63 372.9-20.8 373.75-19.05L373.75-19.05Q374.1-18.3 374.27-17.25 374.45-16.2 374.55-14.53 374.65-12.85 374.65-10.15L374.65-10.15 374.65 0 371.45 0 371.45-10.25Q371.45-13.55 371.27-15.28 371.1-17 370.5-17.95L370.5-17.95Q370.05-18.65 368.97-19.33 367.9-20 365.75-20L365.75-20Q364.55-20 363.55-19.8 362.55-19.6 361.7-19.25L361.7-19.25 361.7 0 358.5 0 358.5-18.25ZM393.4-22.3L392.6-19.4Q391.65-19.65 390.57-19.83 389.5-20 388.6-20L388.6-20Q386.8-20 385.82-19.4 384.85-18.8 384.5-18.3L384.5-18.3Q383.7-17.25 383.55-15.8 383.4-14.35 383.4-13.25L383.4-13.25 383.4-3.8Q385.7-2.5 388.6-2.5L388.6-2.5Q390-2.5 391.22-2.75 392.45-3 393.7-3.6L393.7-3.6 393.7-0.45Q391.3 0.5 388.55 0.5L388.55 0.5Q386 0.5 384.05-0.08 382.1-0.65 380.72-1.5 379.35-2.35 378.45-3.05L378.45-3.05 380.2-5.1 380.2-13.25Q380.2-14.2 380.25-15.5 380.3-16.8 380.75-18.2 381.2-19.6 382.35-20.8L382.35-20.8Q383.8-22.3 385.55-22.65 387.3-23 388.7-23L388.7-23Q390-23 391.17-22.8 392.35-22.6 393.4-22.3L393.4-22.3ZM413.49-10.35L401.29-10.35 401.29-3.8Q402.44-3 403.79-2.75 405.14-2.5 406.29-2.5L406.29-2.5Q408.44-2.5 410.17-2.98 411.89-3.45 413.49-4.55L413.49-4.55 413.49-1.2Q411.99-0.3 410.22 0.1 408.44 0.5 406.39 0.5L406.39 0.5Q403.19 0.5 400.77-0.4 398.34-1.3 396.34-3.05L396.34-3.05 398.09-5.1 398.09-13.25Q398.09-14.2 398.12-15.5 398.14-16.8 398.54-18.2 398.94-19.6 399.99-20.8L399.99-20.8Q401.34-22.3 402.92-22.65 404.49-23 405.74-23L405.74-23Q407.04-23 408.62-22.65 410.19-22.3 411.49-20.8L411.49-20.8Q412.54-19.6 412.97-18.2 413.39-16.8 413.44-15.5 413.49-14.2 413.49-13.25L413.49-13.25 413.49-10.35ZM401.29-13.35L409.99-13.35Q409.99-14.45 409.89-15.85 409.79-17.25 409.09-18.3L409.09-18.3Q408.79-18.8 407.99-19.4 407.19-20 405.64-20L405.64-20Q404.14-20 403.32-19.4 402.49-18.8 402.14-18.3L402.14-18.3Q401.49-17.25 401.39-15.85 401.29-14.45 401.29-13.35L401.29-13.35ZM432.49-21.2L431.19-18.4Q429.79-19.1 428.47-19.5 427.14-19.9 425.44-19.9L425.44-19.9Q423.79-19.9 422.62-19.25 421.44-18.6 421.44-16.85L421.44-16.85Q421.44-15.5 422.34-14.73 423.24-13.95 424.54-13.3L424.54-13.3 427.84-11.7Q430.04-10.65 431.29-9.28 432.54-7.9 432.54-5.9L432.54-5.9 432.54-4.75 434.24-2.7Q432.09-0.7 429.69-0.1 427.29 0.5 425.09 0.5L425.09 0.5Q422.94 0.5 421.19 0.13 419.44-0.25 418.24-0.75L418.24-0.75 418.24-3.95Q419.64-3.35 421.17-2.93 422.69-2.5 424.99-2.5L424.99-2.5Q426.34-2.5 427.52-2.8 428.69-3.1 429.34-3.6L429.34-3.6 429.34-4.6Q429.34-6.1 428.72-7.08 428.09-8.05 426.19-9L426.19-9 422.34-10.9Q420.69-11.75 419.47-13.05 418.24-14.35 418.24-16.85L418.24-16.85Q418.24-19.65 420.17-21.33 422.09-23 425.44-23L425.44-23Q427.59-23 429.37-22.5 431.14-22 432.49-21.2L432.49-21.2ZM460.29-22.3L459.49-19.4Q458.54-19.65 457.46-19.83 456.39-20 455.49-20L455.49-20Q453.69-20 452.71-19.4 451.74-18.8 451.39-18.3L451.39-18.3Q450.59-17.25 450.44-15.8 450.29-14.35 450.29-13.25L450.29-13.25 450.29-3.8Q452.59-2.5 455.49-2.5L455.49-2.5Q456.89-2.5 458.11-2.75 459.34-3 460.59-3.6L460.59-3.6 460.59-0.45Q458.19 0.5 455.44 0.5L455.44 0.5Q452.89 0.5 450.94-0.08 448.99-0.65 447.61-1.5 446.24-2.35 445.34-3.05L445.34-3.05 447.09-5.1 447.09-13.25Q447.09-14.2 447.14-15.5 447.19-16.8 447.64-18.2 448.09-19.6 449.24-20.8L449.24-20.8Q450.69-22.3 452.44-22.65 454.19-23 455.59-23L455.59-23Q456.89-23 458.06-22.8 459.24-22.6 460.29-22.3L460.29-22.3ZM464.88-1.75L464.88-13.25Q464.88-14.2 464.93-15.5 464.98-16.8 465.41-18.2 465.83-19.6 466.93-20.8L466.93-20.8Q468.33-22.3 470.01-22.65 471.68-23 472.93-23L472.93-23Q474.23-23 475.88-22.65 477.53-22.3 478.93-20.8L478.93-20.8Q480.03-19.6 480.46-18.2 480.88-16.8 480.93-15.5 480.98-14.2 480.98-13.25L480.98-13.25 480.98-5.1 482.68-3.05Q480.68-1.3 478.28-0.4 475.88 0.5 472.93 0.5L472.93 0.5Q470.03 0.5 468.06-0.23 466.08-0.95 464.88-1.75L464.88-1.75ZM468.08-13.35L468.08-3.8Q469.23-3 470.53-2.75 471.83-2.5 472.93-2.5L472.93-2.5Q474.03-2.5 475.36-2.75 476.68-3 477.78-3.8L477.78-3.8 477.78-13.35Q477.78-14.45 477.66-15.85 477.53-17.25 476.78-18.3L476.78-18.3Q476.43-18.8 475.53-19.4 474.63-20 472.93-20L472.93-20Q471.23-20 470.36-19.4 469.48-18.8 469.08-18.3L469.08-18.3Q468.33-17.25 468.21-15.85 468.08-14.45 468.08-13.35L468.08-13.35ZM486.98-17.25L485.58-19.7Q488.33-21.35 491.68-22.18 495.03-23 498.68-23L498.68-23Q499.58-23 501.23-22.85 502.88-22.7 504.71-22.15 506.53-21.6 507.88-20.3L507.88-20.3Q509.78-18.5 510.16-16.23 510.53-13.95 510.53-11.9L510.53-11.9 510.53 0 507.38 0 507.38-10.15Q507.38-11.4 507.33-12.88 507.28-14.35 506.93-15.73 506.58-17.1 505.63-18.05L505.63-18.05Q504.73-19 503.18-19.5 501.63-20 500.38-20L500.38-20 500.38 0 497.18 0 497.18-20Q495.43-20 493.61-19.68 491.78-19.35 490.18-18.65L490.18-18.65 490.18 0 486.98 0 486.98-17.25ZM531.43-10.35L519.23-10.35 519.23-3.8Q520.38-3 521.73-2.75 523.08-2.5 524.23-2.5L524.23-2.5Q526.38-2.5 528.1-2.98 529.83-3.45 531.43-4.55L531.43-4.55 531.43-1.2Q529.93-0.3 528.15 0.1 526.38 0.5 524.33 0.5L524.33 0.5Q521.13 0.5 518.7-0.4 516.28-1.3 514.28-3.05L514.28-3.05 516.03-5.1 516.03-13.25Q516.03-14.2 516.05-15.5 516.08-16.8 516.48-18.2 516.88-19.6 517.93-20.8L517.93-20.8Q519.28-22.3 520.85-22.65 522.43-23 523.68-23L523.68-23Q524.98-23 526.55-22.65 528.13-22.3 529.43-20.8L529.43-20.8Q530.48-19.6 530.9-18.2 531.33-16.8 531.38-15.5 531.43-14.2 531.43-13.25L531.43-13.25 531.43-10.35ZM519.23-13.35L527.93-13.35Q527.93-14.45 527.83-15.85 527.73-17.25 527.03-18.3L527.03-18.3Q526.73-18.8 525.93-19.4 525.13-20 523.58-20L523.58-20Q522.08-20 521.25-19.4 520.43-18.8 520.08-18.3L520.08-18.3Q519.43-17.25 519.33-15.85 519.23-14.45 519.23-13.35L519.23-13.35ZM544.82-28.5L549.02-28.5 549.02-22.5 553.77-22.5 553.77-19.4 549.02-19.4 549.02-12.95Q549.02-11.55 549.1-9.8 549.17-8.05 550.12-6.45L550.12-6.45Q550.82-5.3 552.3-4.05 553.77-2.8 555.07-2L555.07-2 553.17 0.5Q551.72-0.3 550.25-1.5 548.77-2.7 547.82-4L547.82-4Q546.47-5.9 546.15-7.83 545.82-9.75 545.82-11.65L545.82-11.65 545.82-25.35 544.82-28.5ZM558.17-1.75L558.17-13.25Q558.17-14.2 558.22-15.5 558.27-16.8 558.69-18.2 559.12-19.6 560.22-20.8L560.22-20.8Q561.62-22.3 563.29-22.65 564.97-23 566.22-23L566.22-23Q567.52-23 569.17-22.65 570.82-22.3 572.22-20.8L572.22-20.8Q573.32-19.6 573.74-18.2 574.17-16.8 574.22-15.5 574.27-14.2 574.27-13.25L574.27-13.25 574.27-5.1 575.97-3.05Q573.97-1.3 571.57-0.4 569.17 0.5 566.22 0.5L566.22 0.5Q563.32 0.5 561.34-0.23 559.37-0.95 558.17-1.75L558.17-1.75ZM561.37-13.35L561.37-3.8Q562.52-3 563.82-2.75 565.12-2.5 566.22-2.5L566.22-2.5Q567.32-2.5 568.64-2.75 569.97-3 571.07-3.8L571.07-3.8 571.07-13.35Q571.07-14.45 570.94-15.85 570.82-17.25 570.07-18.3L570.07-18.3Q569.72-18.8 568.82-19.4 567.92-20 566.22-20L566.22-20Q564.52-20 563.64-19.4 562.77-18.8 562.37-18.3L562.37-18.3Q561.62-17.25 561.49-15.85 561.37-14.45 561.37-13.35L561.37-13.35ZM592.56-32.75L592.56-22.35Q593.46-22.65 594.54-22.83 595.61-23 596.76-23L596.76-23Q598.01-23 599.51-22.73 601.01-22.45 602.36-21.63 603.71-20.8 604.51-19.05L604.51-19.05Q604.86-18.3 605.06-17.25 605.26-16.2 605.34-14.53 605.41-12.85 605.41-10.15L605.41-10.15 605.41 0 602.21 0 602.21-10.25Q602.21-13.55 602.06-15.28 601.91-17 601.26-17.95L601.26-17.95Q600.86-18.65 599.79-19.33 598.71-20 596.56-20L596.56-20Q595.31-20 594.34-19.8 593.36-19.6 592.56-19.25L592.56-19.25 592.56 0 589.36 0 589.36-29.6 588.36-32.75 592.56-32.75ZM613.31-19.85L613.56-23Q615.66-23 617.76-22.63 619.86-22.25 621.61-21.33 623.36-20.4 624.41-18.68 625.46-16.95 625.46-14.25L625.46-14.25 625.46-4.25 626.81-1.95Q624.51-0.65 622.24-0.08 619.96 0.5 618.06 0.5L618.06 0.5Q615.61 0.5 614.11-0.13 612.61-0.75 611.76-1.55L611.76-1.55Q610.96-2.4 610.36-3.68 609.76-4.95 609.76-6.55L609.76-6.55Q609.76-9.05 610.81-10.68 611.86-12.3 613.64-13.2 615.41-14.1 617.64-14.48 619.86-14.85 622.26-14.85L622.26-14.85Q622.16-16.5 621.29-17.48 620.41-18.45 619.09-18.95 617.76-19.45 616.26-19.63 614.76-19.8 613.31-19.85L613.31-19.85ZM622.26-3.35L622.26-11.85Q621.06-11.85 619.51-11.7 617.96-11.55 616.51-11.08 615.06-10.6 614.11-9.6 613.16-8.6 613.16-6.9L613.16-6.9Q613.16-5.75 613.51-4.98 613.86-4.2 614.31-3.8L614.31-3.8Q615.11-3 616.14-2.75 617.16-2.5 618.16-2.5L618.16-2.5Q619.36-2.5 620.36-2.75 621.36-3 622.26-3.35L622.26-3.35ZM631.56-18.25L630.41-20.7Q631.71-21.5 633.86-22.25 636.01-23 639.01-23L639.01-23Q640.31-23 641.78-22.73 643.26-22.45 644.61-21.63 645.96-20.8 646.81-19.05L646.81-19.05Q647.16-18.3 647.33-17.25 647.51-16.2 647.61-14.53 647.71-12.85 647.71-10.15L647.71-10.15 647.71 0 644.51 0 644.51-10.25Q644.51-13.55 644.33-15.28 644.16-17 643.56-17.95L643.56-17.95Q643.11-18.65 642.03-19.33 640.96-20 638.81-20L638.81-20Q637.61-20 636.61-19.8 635.61-19.6 634.76-19.25L634.76-19.25 634.76 0 631.56 0 631.56-18.25ZM669.91-20.85L668.76-18.2 668.76-14.05Q668.76-10.4 666.58-8.2 664.41-6 660.56-6L660.56-6Q660.21-6 659.86-6.03 659.51-6.05 659.26-6.1L659.26-6.1 659.26-3 661.91-3Q663.96-3 665.88-2.45 667.81-1.9 669.03-0.5 670.26 0.9 670.26 3.45L670.26 3.45 670.26 4.65 671.96 6.7Q669.86 8.6 667.13 9.58 664.41 10.55 661.41 10.55L661.41 10.55Q655.66 10.55 651.51 7.25L651.51 7.25 653.21 4.7Q655.56 6.4 657.33 6.98 659.11 7.55 661.41 7.55L661.41 7.55Q663.36 7.55 664.76 7.1 666.16 6.65 667.06 6.05L667.06 6.05 667.06 5Q667.06 2.5 666.03 1.25 665.01 0 661.91 0L661.91 0 656.01 0 656.01-6.85Q654.21-7.7 653.26-9.45 652.31-11.2 652.31-13.55L652.31-13.55 652.31-15.3Q652.31-17.9 653.51-19.6 654.71-21.3 656.73-22.15 658.76-23 661.21-23L661.21-23Q664.46-23 666.61-22.23 668.76-21.45 669.91-20.85L669.91-20.85ZM665.56-14.1L665.56-19.05Q664.71-19.45 663.56-19.73 662.41-20 660.91-20L660.91-20Q658.56-20 657.03-18.78 655.51-17.55 655.51-15.3L655.51-15.3 655.51-13.55Q655.51-11.4 656.88-10.2 658.26-9 660.46-9L660.46-9Q662.76-9 664.11-10.3 665.46-11.6 665.56-14.1L665.56-14.1ZM683.6-1.75L683.6-13.25Q683.6-14.2 683.65-15.5 683.7-16.8 684.13-18.2 684.55-19.6 685.65-20.8L685.65-20.8Q687.05-22.3 688.73-22.65 690.4-23 691.65-23L691.65-23Q692.95-23 694.6-22.65 696.25-22.3 697.65-20.8L697.65-20.8Q698.75-19.6 699.18-18.2 699.6-16.8 699.65-15.5 699.7-14.2 699.7-13.25L699.7-13.25 699.7-5.1 701.4-3.05Q699.4-1.3 697-0.4 694.6 0.5 691.65 0.5L691.65 0.5Q688.75 0.5 686.78-0.23 684.8-0.95 683.6-1.75L683.6-1.75ZM686.8-13.35L686.8-3.8Q687.95-3 689.25-2.75 690.55-2.5 691.65-2.5L691.65-2.5Q692.75-2.5 694.08-2.75 695.4-3 696.5-3.8L696.5-3.8 696.5-13.35Q696.5-14.45 696.38-15.85 696.25-17.25 695.5-18.3L695.5-18.3Q695.15-18.8 694.25-19.4 693.35-20 691.65-20L691.65-20Q689.95-20 689.08-19.4 688.2-18.8 687.8-18.3L687.8-18.3Q687.05-17.25 686.93-15.85 686.8-14.45 686.8-13.35L686.8-13.35ZM721.35-4.25L722.55-1.8Q721.25-1 719.1-0.25 716.95 0.5 713.9 0.5L713.9 0.5Q712.65 0.5 711.15 0.23 709.65-0.05 708.32-0.9 707-1.75 706.15-3.45L706.15-3.45Q705.85-4.2 705.65-5.25 705.45-6.3 705.35-8 705.25-9.7 705.25-12.35L705.25-12.35 705.25-22.5 708.45-22.5 708.45-12.25Q708.45-8.95 708.62-7.23 708.8-5.5 709.4-4.55L709.4-4.55Q709.85-3.9 710.92-3.2 712-2.5 714.15-2.5L714.15-2.5Q715.35-2.5 716.35-2.7 717.35-2.9 718.15-3.25L718.15-3.25 718.15-22.5 721.35-22.5 721.35-4.25ZM726.15-28.5L730.35-28.5 730.35-22.5 735.1-22.5 735.1-19.4 730.35-19.4 730.35-12.95Q730.35-11.55 730.42-9.8 730.5-8.05 731.45-6.45L731.45-6.45Q732.15-5.3 733.62-4.05 735.1-2.8 736.4-2L736.4-2 734.5 0.5Q733.05-0.3 731.57-1.5 730.1-2.7 729.15-4L729.15-4Q727.8-5.9 727.47-7.83 727.15-9.75 727.15-11.65L727.15-11.65 727.15-25.35 726.15-28.5Z" opacity="1" transform="matrix(1,0,0,1,0,0)" fill="#e9f443" class="slogan-text-1" data-fill-palette-color="secondary" id="text-1"></path></svg></g></svg></g></svg></g></svg></g><g transform="matrix(1,0,0,1,142.70592900361393,0)"><svg viewBox="0 0 110.10814199277213 81.87684713697894" height="81.87684713697894" width="110.10814199277213"><g><svg xmlns:x="http://ns.adobe.com/Extensibility/1.0/" xmlns:i="http://ns.adobe.com/AdobeIllustrator/10.0/" xmlns:graph="http://ns.adobe.com/Graphs/1.0/" xmlns="http://www.w3.org/2000/svg" xmlns:xlink="http://www.w3.org/1999/xlink" version="1.1" x="8" y="0" viewBox="4 10 92.1 80.12970463166647" enable-background="new 0 0 100 100" xml:space="preserve" height="81.87684713697894" width="94.10814199277213" class="icon-icon-0" data-fill-palette-color="accent" id="icon-0"><path d="M96.1 19.5C96.1 14.2 91.8 10 86.6 10H13.5C8.2 10 4 14.3 4 19.5V63.8C4 69.1 8.3 73.3 13.5 73.3H65.7L82 89.7C82.9 90.6 84.4 90 84.4 88.7V73.3H86.5C91.8 73.3 96 69 96 63.8V19.5zM46.5 40.8C46.5 45.6 46.1 49.5 45.4 52.2 45.2 52.8 44.9 53.3 44.7 53.9H36.6C36.7 53.8 36.9 53.7 37 53.5 38.2 51.6 38.9 48.9 39 45.5H35.9C33.8 45.5 32 43.5 32 41V33.2C32 30.7 33.7 28.7 35.9 28.7H46.5zM68 40.8C68 45.6 67.6 49.5 66.9 52.2 66.7 52.8 66.4 53.3 66.2 53.9H58.1C58.2 53.8 58.4 53.7 58.5 53.5 59.7 51.6 60.4 48.9 60.5 45.5H57.4C55.3 45.5 53.5 43.5 53.5 41V33.2C53.5 30.7 55.2 28.7 57.4 28.7H68z" fill="#e9f443" data-fill-palette-color="accent"></path></svg><g></g></g></svg></g><g><rect width="142.70592900361393" height="3.2720197677971536" y="77.60482736918179" x="252.81407099638608" fill="#e9f443" data-fill-palette-color="accent"></rect><rect width="142.70592900361393" height="3.2720197677971536" y="77.60482736918179" x="0" fill="#e9f443" data-fill-palette-color="accent"></rect><rect width="142.70592900361393" height="3.2720197677971536" y="71.06078783358748" x="252.81407099638608" fill="#e9f443" data-fill-palette-color="accent"></rect><rect width="142.70592900361393" height="3.2720197677971536" y="71.06078783358748" x="0" fill="#e9f443" data-fill-palette-color="accent"></rect></g></svg></g></svg></g><defs></defs></svg><rect width="395.52" height="149.68752997280686" fill="none" stroke="none" visibility="hidden"></rect></g></svg></g></svg>